<svg width="36" height="22" viewBox="0 0 36 22" fill="none" xmlns="http://www.w3.org/2000/svg">
<rect x="1.49677" y="1.49826" width="34.0035" height="19.0035" rx="1.5" fill="#F4F4F4"/>
<path d="M8.16777 6.4V14.083C8.16777 14.2303 8.15477 14.3343 8.12877 14.395L8.15477 14.421C8.21543 14.395 8.32377 14.382 8.47977 14.382H12.2238V15.5H6.99777V6.4H8.16777Z" fill="black"/>
<path d="M27.4991 13.0003C27.4991 15.7624 25.7602 17.5013 22.9981 17.5013C20.2359 17.5013 18.4971 15.7624 18.4971 13.0003C18.4971 10.0362 21.7237 6.0347 22.7133 4.87726C22.7485 4.83614 22.7922 4.80313 22.8414 4.78049C22.8906 4.75786 22.9441 4.74614 22.9982 4.74614C23.0524 4.74614 23.1059 4.75786 23.1551 4.78049C23.2042 4.80313 23.2479 4.83614 23.2831 4.87726C24.2724 6.0347 27.4991 10.0362 27.4991 13.0003Z" stroke="#868686" stroke-width="1.00189" stroke-miterlimit="10"/>
<path d="M25.7504 13.2498C25.7504 13.8471 25.5131 14.42 25.0907 14.8423C24.6684 15.2647 24.0955 15.502 23.4982 15.502" stroke="#868686" stroke-width="1.00189" stroke-linecap="round" stroke-linejoin="round"/>
<rect x="1.49677" y="1.49826" width="34.0035" height="19.0035" rx="1.5" stroke="#CCCCCC"/>
</svg>
