<svg width="232" height="62" xmlns="http://www.w3.org/2000/svg">

 <g>
  <title>background</title>
  <rect fill="none" id="canvas_background" height="402" width="582" y="-1" x="-1"/>
 </g>
 <g>
  <title>Layer 1</title>
  <rect id="svg_1" fill="#EFF2F6" rx="1" height="59" width="229" y="1.375" x="0.680729"/>
  <rect id="svg_2" fill="#D9DADA" height="12" width="1" y="7.375" x="6.33008"/>
  <path id="svg_3" fill="#595959" d="m20.1758,10.199c0.52,-0.736 1.24,-1.104 2.16,-1.104c0.92,0 1.636,0.368 2.148,1.104c0.512,0.736 0.768,1.776 0.768,3.12c0,1.344 -0.26,2.388 -0.78,3.132c-0.512,0.736 -1.224,1.104 -2.136,1.104c-0.92,0 -1.64,-0.368 -2.16,-1.104c-0.512,-0.744 -0.768,-1.788 -0.768,-3.132c0,-1.352 0.256,-2.392 0.768,-3.12zm2.16,-0.168c-0.584,0 -1.044,0.292 -1.38,0.876c-0.328,0.576 -0.492,1.38 -0.492,2.412c0,1.032 0.164,1.84 0.492,2.424c0.336,0.584 0.796,0.876 1.38,0.876c0.576,0 1.032,-0.292 1.368,-0.876c0.336,-0.584 0.504,-1.392 0.504,-2.424c0,-1.032 -0.168,-1.836 -0.504,-2.412c-0.336,-0.584 -0.792,-0.876 -1.368,-0.876z"/>
  <rect id="svg_4" fill="#D9DADA" height="12" width="1" y="7.375" x="37.3301"/>
  <path id="svg_5" fill="#595959" d="m54.7129,9.275l0,8.1l-1.02,0l0,-5.256c0,-0.424 0.032,-0.772 0.096,-1.044l-0.036,-0.024c-0.08,0.128 -0.228,0.252 -0.444,0.372l-1.056,0.576l0,-1.032l1.512,-1.032l0.192,-0.66l0.756,0z"/>
  <rect id="svg_6" fill="#D9DADA" height="12" width="1" y="7.375" x="69.3301"/>
  <path id="svg_7" fill="#595959" d="m85.437,9.095c0.704,0 1.26,0.188 1.668,0.564c0.416,0.376 0.624,0.888 0.624,1.536c0,0.744 -0.344,1.548 -1.032,2.412l-1.596,1.98c-0.336,0.416 -0.62,0.708 -0.852,0.876l0.024,0.024c0.216,-0.072 0.54,-0.108 0.972,-0.108l2.652,0l0.012,0.024l-0.552,0.972l-4.884,0l-0.024,-0.048l3.408,-4.26c0.544,-0.672 0.816,-1.268 0.816,-1.788c0,-0.392 -0.12,-0.696 -0.36,-0.912c-0.232,-0.216 -0.54,-0.324 -0.924,-0.324c-0.568,0 -1.22,0.28 -1.956,0.84l-0.528,-0.816c0.856,-0.648 1.7,-0.972 2.532,-0.972z"/>
  <rect id="svg_8" fill="#D9DADA" height="12" width="1" y="7.375" x="100.33"/>
  <path id="svg_9" fill="#595959" d="m116.136,9.095c0.696,0 1.236,0.168 1.62,0.504c0.392,0.336 0.588,0.792 0.588,1.368c0,0.424 -0.112,0.788 -0.336,1.092c-0.216,0.304 -0.516,0.516 -0.9,0.636c-0.176,0.048 -0.384,0.084 -0.624,0.108l0,0.048c0.208,0 0.412,0.02 0.612,0.06c1.136,0.28 1.704,0.988 1.704,2.124c0,0.776 -0.256,1.392 -0.768,1.848c-0.512,0.448 -1.228,0.672 -2.148,0.672c-0.832,0 -1.596,-0.196 -2.292,-0.588l0.348,-0.948c0.688,0.392 1.34,0.588 1.956,0.588c0.584,0 1.036,-0.14 1.356,-0.42c0.32,-0.28 0.48,-0.676 0.48,-1.188c0,-0.56 -0.204,-0.964 -0.612,-1.212c-0.4,-0.256 -1.044,-0.384 -1.932,-0.384l0,-0.924c0.656,0 1.172,-0.116 1.548,-0.348c0.376,-0.232 0.564,-0.56 0.564,-0.984c0,-0.352 -0.116,-0.628 -0.348,-0.828c-0.232,-0.2 -0.552,-0.3 -0.96,-0.3c-0.544,0 -1.152,0.204 -1.824,0.612l-0.42,-0.852c0.736,-0.456 1.532,-0.684 2.388,-0.684z"/>
  <rect id="svg_10" fill="#D9DADA" height="12" width="1" y="7.375" x="131.33"/>
  <path id="svg_11" fill="#595959" d="m149.162,9.275l0,5.268c0,0.144 -0.008,0.24 -0.024,0.288l0.024,0.024c0.048,-0.024 0.12,-0.036 0.216,-0.036l1.104,0l-0.324,0.96l-0.768,0c-0.088,0 -0.164,-0.008 -0.228,-0.024l-0.024,0.012c0.016,0.04 0.024,0.132 0.024,0.276l0,1.332l-0.984,0l0,-1.332c0,-0.144 0.004,-0.236 0.012,-0.276l-0.012,-0.012c-0.08,0.016 -0.16,0.024 -0.24,0.024l-3.732,0l0,-0.852l4.032,-5.652l0.924,0zm-0.972,1.356c-0.128,0.336 -0.304,0.66 -0.528,0.972l-1.944,2.7c-0.192,0.28 -0.348,0.472 -0.468,0.576l0.024,0.024c0.168,-0.056 0.388,-0.084 0.66,-0.084l1.98,0c0.104,0 0.188,0.012 0.252,0.036l0.024,-0.024c-0.016,-0.048 -0.024,-0.148 -0.024,-0.3l0,-3.096c0,-0.272 0.02,-0.536 0.06,-0.792l-0.036,-0.012z"/>
  <rect id="svg_12" fill="#D9DADA" height="12" width="1" y="7.375" x="162.33"/>
  <path id="svg_13" fill="#595959" d="m181.076,9.275l-0.384,1.02l-2.172,0c-0.16,0 -0.264,-0.004 -0.312,-0.012l-0.012,0.012c0,0.104 -0.032,0.284 -0.096,0.54l-0.264,0.876c-0.056,0.184 -0.136,0.344 -0.24,0.48l0.012,0.024c0.208,-0.048 0.396,-0.072 0.564,-0.072c0.848,0 1.516,0.232 2.004,0.696c0.496,0.464 0.744,1.088 0.744,1.872c0,0.872 -0.284,1.564 -0.852,2.076c-0.568,0.512 -1.34,0.768 -2.316,0.768c-0.84,0 -1.592,-0.196 -2.256,-0.588l0.36,-0.936c0.704,0.392 1.36,0.588 1.968,0.588c0.64,0 1.14,-0.168 1.5,-0.504c0.36,-0.336 0.54,-0.788 0.54,-1.356c0,-0.552 -0.18,-0.972 -0.54,-1.26c-0.36,-0.288 -0.868,-0.432 -1.524,-0.432c-0.488,0 -0.932,0.06 -1.332,0.18l-0.036,-0.036l1.164,-3.936l3.48,0z"/>
  <rect id="svg_14" fill="#D9DADA" height="12" width="1" y="7.375" x="193.33"/>
  <path id="svg_15" fill="#595959" d="m210.876,9.215l-1.932,2.268c-0.496,0.592 -0.852,1.132 -1.068,1.62l0.048,0.012c0.424,-0.68 1.012,-1.02 1.764,-1.02c0.736,0 1.336,0.252 1.8,0.756c0.472,0.504 0.708,1.148 0.708,1.932c0,0.816 -0.268,1.484 -0.804,2.004c-0.528,0.512 -1.208,0.768 -2.04,0.768c-0.832,0 -1.516,-0.264 -2.052,-0.792c-0.528,-0.536 -0.792,-1.24 -0.792,-2.112c0,-1.08 0.492,-2.232 1.476,-3.456l1.596,-1.98l1.296,0zm-1.524,3.852c-0.544,0 -0.98,0.164 -1.308,0.492c-0.32,0.328 -0.48,0.772 -0.48,1.332c0,0.52 0.164,0.94 0.492,1.26c0.328,0.32 0.764,0.48 1.308,0.48c0.544,0 0.976,-0.164 1.296,-0.492c0.32,-0.336 0.48,-0.784 0.48,-1.344c0,-0.536 -0.16,-0.956 -0.48,-1.26c-0.32,-0.312 -0.756,-0.468 -1.308,-0.468z"/>
  <rect id="svg_16" fill="#D9DADA" height="12" width="1" y="7.375" x="224.33"/>
  <path id="svg_20" fill="#262626" d="m20.4001,51.775l0,-2.19l0.52,0c0.08,0 0.1666,0.0133 0.26,0.04l0.02,-0.01c0,-0.0867 0.0233,-0.1767 0.07,-0.27c0.5933,-1.1867 0.89,-2.6233 0.89,-4.31l0,-1.66l3.88,0l0,5.98c0,0.12 -0.01,0.2033 -0.03,0.25l0.02,0.02c0.0533,-0.0267 0.14,-0.04 0.26,-0.04l0.47,0l0,2.19l-0.85,0l0,-1.1c0,-0.12 0.0133,-0.2067 0.04,-0.26l-0.02,-0.01c-0.0667,0.02 -0.1534,0.03 -0.26,0.03l-4.17,0c-0.1134,0 -0.2,-0.01 -0.26,-0.03l-0.01,0.01c0.02,0.06 0.03,0.1467 0.03,0.26l0,1.1l-0.86,0zm1.69,-2.14c0.06,-0.0333 0.15,-0.05 0.27,-0.05l2.54,0c0.1066,0 0.19,0.0133 0.25,0.04l0.02,-0.02c-0.02,-0.0467 -0.03,-0.13 -0.03,-0.25l0,-4.89c0,-0.1267 0.01,-0.2133 0.03,-0.26l-0.02,-0.02c-0.06,0.0267 -0.1434,0.04 -0.25,0.04l-1.6,0c-0.1067,0 -0.19,-0.0133 -0.25,-0.04l-0.02,0.02c0.02,0.0533 0.03,0.14 0.03,0.26l0,0.65c0,0.8867 -0.0867,1.7367 -0.26,2.55c-0.1734,0.8067 -0.4167,1.4567 -0.73,1.95l0.02,0.02zm5.1078,0.74l3.27,-7.15l0.1,0l3.27,7.15l-1.01,0l-0.87,-1.96l-2.88,0l-0.87,1.96l-1.01,0zm2.13,-2.71c0.12,-0.0133 0.3067,-0.02 0.56,-0.02l1.26,0c0.2533,0 0.44,0.0067 0.56,0.02l0.01,-0.01c-0.1,-0.1267 -0.2033,-0.3167 -0.31,-0.57l-0.62,-1.46c-0.1467,-0.38 -0.23,-0.6533 -0.25,-0.82l-0.04,0c-0.02,0.1667 -0.1033,0.44 -0.25,0.82l-0.62,1.46c-0.1067,0.2533 -0.21,0.4433 -0.31,0.57l0.01,0.01zm5.3855,2.71l0,-7l2.55,0c0.6,0 1.0766,0.1567 1.43,0.47c0.3533,0.3133 0.53,0.7367 0.53,1.27c0,0.6867 -0.2934,1.15 -0.88,1.39c-0.16,0.0733 -0.34,0.1133 -0.54,0.12l0,0.04c0.22,0.0067 0.4033,0.03 0.55,0.07c0.4133,0.1 0.7333,0.3 0.96,0.6c0.2266,0.2933 0.34,0.6633 0.34,1.11c0,0.5933 -0.2,1.0633 -0.6,1.41c-0.3934,0.3467 -0.9234,0.52 -1.59,0.52l-2.75,0zm0.89,-4.01c0.0733,-0.02 0.1566,-0.03 0.25,-0.03l1.13,0c0.4133,0 0.7333,-0.0967 0.96,-0.29c0.2333,-0.1933 0.35,-0.4633 0.35,-0.81c0,-0.3267 -0.1034,-0.5767 -0.31,-0.75c-0.2,-0.1733 -0.49,-0.26 -0.87,-0.26l-1.26,0c-0.1134,0 -0.1967,-0.0133 -0.25,-0.04l-0.02,0.02c0.02,0.0467 0.03,0.1333 0.03,0.26l0,1.64c0,0.1067 -0.01,0.19 -0.03,0.25l0.02,0.01zm0,3.2c0.0533,-0.0267 0.1366,-0.04 0.25,-0.04l1.47,0c0.92,0 1.38,-0.3833 1.38,-1.15c0,-0.8067 -0.5067,-1.21 -1.52,-1.21l-1.33,0c-0.1067,0 -0.19,-0.0133 -0.25,-0.04l-0.02,0.02c0.02,0.0467 0.03,0.13 0.03,0.25l0,1.89c0,0.1267 -0.01,0.2133 -0.03,0.26l0.02,0.02zm10.7798,-6.19l0,7l-0.9,0l0,-5.92c0,-0.12 0.01,-0.2033 0.03,-0.25l-0.02,-0.02c-0.06,0.0267 -0.1433,0.04 -0.25,0.04l-2.91,0c-0.1067,0 -0.19,-0.0133 -0.25,-0.04l-0.02,0.02c0.02,0.0467 0.03,0.13 0.03,0.25l0,4.28c0,0.58 -0.12,1.0067 -0.36,1.28c-0.2333,0.2733 -0.6,0.41 -1.1,0.41c-0.18,0 -0.38,-0.0133 -0.6,-0.04l0,-0.83c0.28,0.0133 0.4533,0.02 0.52,0.02c0.2267,0 0.39,-0.06 0.49,-0.18c0.1,-0.1267 0.15,-0.33 0.15,-0.61l0,-5.41l5.19,0zm5.4731,0l0,0.85l-2.79,0c-0.1067,0 -0.19,-0.0133 -0.25,-0.04l-0.02,0.02c0.02,0.0467 0.03,0.1333 0.03,0.26l0,1.43c0,0.12 -0.01,0.2033 -0.03,0.25l0.02,0.02c0.06,-0.0267 0.1433,-0.04 0.25,-0.04l2.47,0l0,0.85l-2.47,0c-0.1067,0 -0.19,-0.0133 -0.25,-0.04l-0.02,0.02c0.02,0.0533 0.03,0.14 0.03,0.26l0,2.07c0,0.1267 -0.01,0.2133 -0.03,0.26l0.02,0.02c0.06,-0.0267 0.1433,-0.04 0.25,-0.04l2.84,0l0,0.85l-3.98,0l0,-7l3.93,0zm6.7464,0l0,7l-0.9,0l0,-3.05c0,-0.1133 0.01,-0.1967 0.03,-0.25l-0.02,-0.02c-0.06,0.0267 -0.1433,0.04 -0.25,0.04l-3.25,0c-0.1066,0 -0.19,-0.0133 -0.25,-0.04l-0.02,0.02c0.02,0.0533 0.03,0.1367 0.03,0.25l0,3.05l-0.9,0l0,-7l0.9,0l0,2.62c0,0.12 -0.01,0.2033 -0.03,0.25l0.02,0.02c0.06,-0.0267 0.1434,-0.04 0.25,-0.04l3.25,0c0.1067,0 0.19,0.0133 0.25,0.04l0.02,-0.02c-0.02,-0.0533 -0.03,-0.1367 -0.03,-0.25l0,-2.62l0.9,0zm7.2003,-0.1l0.08,0l0,7.1l-0.9,0l0,-4.01c0,-0.5267 0.0334,-0.9467 0.1,-1.26l-0.04,-0.01c-0.1,0.2533 -0.2833,0.5167 -0.55,0.79l-4.26,4.59l-0.09,0l0,-7.1l0.9,0l0,4c0,0.5733 -0.03,0.9933 -0.09,1.26l0.03,0.01c0.1067,-0.24 0.29,-0.5 0.55,-0.78l4.27,-4.59zm5.5552,0.1l0,0.85l-2.79,0c-0.1067,0 -0.19,-0.0133 -0.25,-0.04l-0.02,0.02c0.02,0.0467 0.03,0.1333 0.03,0.26l0,1.43c0,0.12 -0.01,0.2033 -0.03,0.25l0.02,0.02c0.06,-0.0267 0.1433,-0.04 0.25,-0.04l2.47,0l0,0.85l-2.47,0c-0.1067,0 -0.19,-0.0133 -0.25,-0.04l-0.02,0.02c0.02,0.0533 0.03,0.14 0.03,0.26l0,2.07c0,0.1267 -0.01,0.2133 -0.03,0.26l0.02,0.02c0.06,-0.0267 0.1433,-0.04 0.25,-0.04l2.84,0l0,0.85l-3.98,0l0,-7l3.93,0zm7.7157,7.09l-1.66,-3.98c-0.18,-0.4267 -0.2867,-0.8 -0.32,-1.12l-0.04,0c-0.02,0.44 -0.0733,0.8167 -0.16,1.13l-1.08,3.88l-0.94,0l2.02,-7.11l0.13,0l1.89,4.6c0.0867,0.2267 0.15,0.51 0.19,0.85l0.04,0c0.0333,-0.3333 0.0967,-0.6167 0.19,-0.85l1.89,-4.6l0.12,0l2.02,7.11l-0.93,0l-1.08,-3.88c-0.1067,-0.38 -0.16,-0.7567 -0.16,-1.13l-0.04,0c-0.0467,0.36 -0.1567,0.7333 -0.33,1.12l-1.66,3.98l-0.09,0zm4.5205,-0.09l3.27,-7.15l0.1,0l3.27,7.15l-1.01,0l-0.87,-1.96l-2.88,0l-0.87,1.96l-1.01,0zm2.13,-2.71c0.12,-0.0133 0.3066,-0.02 0.56,-0.02l1.26,0c0.2533,0 0.44,0.0067 0.56,0.02l0.01,-0.01c-0.1,-0.1267 -0.2034,-0.3167 -0.31,-0.57l-0.62,-1.46c-0.1467,-0.38 -0.23,-0.6533 -0.25,-0.82l-0.04,0c-0.02,0.1667 -0.1034,0.44 -0.25,0.82l-0.62,1.46c-0.1067,0.2533 -0.21,0.4433 -0.31,0.57l0.01,0.01zm8.3348,2.86c-1.1133,0 -2.0166,-0.3367 -2.71,-1.01c-0.6866,-0.6733 -1.03,-1.5533 -1.03,-2.64c0,-1.0867 0.3434,-1.9667 1.03,-2.64c0.6934,-0.6733 1.5967,-1.01 2.71,-1.01c0.9334,0 1.7534,0.26 2.46,0.78l-0.55,0.78c-0.6,-0.4267 -1.2466,-0.64 -1.94,-0.64c-0.8066,0 -1.4633,0.2533 -1.97,0.76c-0.5066,0.5067 -0.76,1.1633 -0.76,1.97c0,0.8067 0.2534,1.4633 0.76,1.97c0.5067,0.5067 1.1634,0.76 1.97,0.76c0.6934,0 1.34,-0.2133 1.94,-0.64l0.55,0.78c-0.7066,0.52 -1.5266,0.78 -2.46,0.78zm9.3548,-7.15l0,7l-0.9,0l0,-5.92c0,-0.12 0.01,-0.2033 0.03,-0.25l-0.02,-0.02c-0.06,0.0267 -0.143,0.04 -0.25,0.04l-2.9095,0c-0.1067,0 -0.19,-0.0133 -0.25,-0.04l-0.02,0.02c0.02,0.0467 0.03,0.13 0.03,0.25l0,4.28c0,0.58 -0.12,1.0067 -0.36,1.28c-0.2334,0.2733 -0.6,0.41 -1.1,0.41c-0.18,0 -0.38,-0.0133 -0.6,-0.04l0,-0.83c0.28,0.0133 0.4533,0.02 0.52,0.02c0.2266,0 0.39,-0.06 0.49,-0.18c0.1,-0.1267 0.15,-0.33 0.15,-0.61l0,-5.41l5.1895,0zm0.884,7l3.27,-7.15l0.1,0l3.27,7.15l-1.01,0l-0.87,-1.96l-2.88,0l-0.87,1.96l-1.01,0zm2.13,-2.71c0.12,-0.0133 0.306,-0.02 0.56,-0.02l1.26,0c0.253,0 0.44,0.0067 0.56,0.02l0.01,-0.01c-0.1,-0.1267 -0.204,-0.3167 -0.31,-0.57l-0.62,-1.46c-0.147,-0.38 -0.23,-0.6533 -0.25,-0.82l-0.04,0c-0.02,0.1667 -0.104,0.44 -0.25,0.82l-0.62,1.46c-0.107,0.2533 -0.21,0.4433 -0.31,0.57l0.01,0.01zm5.025,4.38l0.37,-2.67l1.01,0l-0.9,2.67l-0.48,0zm10.546,-1.634c-0.608,0 -0.984,-0.252 -1.128,-0.756l-0.276,-0.996c-0.08,-0.28 -0.184,-0.476 -0.312,-0.588c-0.12,-0.12 -0.296,-0.18 -0.528,-0.18l-0.564,0c-0.168,0 -0.292,-0.008 -0.372,-0.024l-0.012,0.012c0.04,0.176 0.06,0.344 0.06,0.504l0,1.992l-1.02,0l0,-5.544l1.02,0l0,1.776c0,0.144 -0.02,0.304 -0.06,0.48l0.012,0.012c0.08,-0.016 0.204,-0.024 0.372,-0.024l0.564,0c0.24,0 0.416,-0.048 0.528,-0.144c0.112,-0.096 0.22,-0.284 0.324,-0.564l0.408,-0.972c0.152,-0.4 0.504,-0.6 1.056,-0.6l0.552,0l0,0.912l-0.276,0c-0.176,0 -0.308,0.032 -0.396,0.096c-0.088,0.064 -0.168,0.18 -0.24,0.348l-0.216,0.588c-0.176,0.472 -0.572,0.712 -1.188,0.72l0,0.048c0.352,0.008 0.612,0.068 0.78,0.18c0.176,0.104 0.304,0.284 0.384,0.54l0.252,0.852c0.048,0.168 0.108,0.28 0.18,0.336c0.08,0.056 0.216,0.084 0.408,0.084l0.324,0l0,0.912l-0.636,0zm1.672,-0.036l0,-5.544l3.576,0l0,0.948l-2.268,0c-0.16,0 -0.272,-0.016 -0.336,-0.048l-0.012,0.012c0.04,0.08 0.06,0.184 0.06,0.312l0,4.32l-1.02,0zm3.686,1.092l-0.684,-0.372l5.424,-9.804l0.696,0.384l-5.436,9.792zm7.555,-0.912c-0.904,0 -1.636,-0.272 -2.196,-0.816c-0.56,-0.552 -0.84,-1.264 -0.84,-2.136c0,-0.872 0.28,-1.58 0.84,-2.124c0.56,-0.552 1.292,-0.828 2.196,-0.828c0.688,0 1.32,0.188 1.896,0.564l-0.492,0.864c-0.448,-0.296 -0.928,-0.444 -1.44,-0.444c-0.56,0 -1.02,0.184 -1.38,0.552c-0.36,0.368 -0.54,0.84 -0.54,1.416c0,0.576 0.18,1.048 0.54,1.416c0.36,0.368 0.82,0.552 1.38,0.552c0.512,0 0.992,-0.148 1.44,-0.444l0.492,0.864c-0.576,0.376 -1.208,0.564 -1.896,0.564zm6.033,-0.108l-1.128,-2.616c-0.2,-0.456 -0.324,-0.792 -0.372,-1.008l-0.036,0c-0.016,0.208 -0.096,0.548 -0.24,1.02l-0.828,2.532l-1.092,0l1.968,-5.616l0.252,0l1.344,3.108c0.112,0.264 0.196,0.516 0.252,0.756l0.036,0c0.032,-0.2 0.116,-0.452 0.252,-0.756l1.344,-3.108l0.252,0l1.968,5.616l-1.092,0l-0.828,-2.532c-0.144,-0.424 -0.224,-0.764 -0.24,-1.02l-0.048,0c-0.04,0.208 -0.16,0.544 -0.36,1.008l-1.128,2.616l-0.276,0zm7.766,-5.064l-3.384,0l0,-0.648l1.38,-1.344c0.328,-0.312 0.572,-0.564 0.732,-0.756c0.168,-0.2 0.28,-0.376 0.336,-0.528c0.064,-0.16 0.096,-0.328 0.096,-0.504c0,-0.256 -0.076,-0.448 -0.228,-0.576c-0.144,-0.128 -0.336,-0.192 -0.576,-0.192c-0.24,0 -0.46,0.048 -0.66,0.144c-0.192,0.088 -0.392,0.212 -0.6,0.372l-0.42,-0.552c0.232,-0.2 0.484,-0.36 0.756,-0.48c0.28,-0.12 0.592,-0.18 0.936,-0.18c0.512,0 0.912,0.128 1.2,0.384c0.296,0.248 0.444,0.592 0.444,1.032c0,0.264 -0.056,0.508 -0.168,0.732c-0.104,0.216 -0.26,0.44 -0.468,0.672c-0.2,0.224 -0.448,0.476 -0.744,0.756l-0.972,0.924l2.34,0l0,0.744z"/>
 </g>
</svg>