<svg width="38" height="21" viewBox="0 0 38 21" fill="none" xmlns="http://www.w3.org/2000/svg">
<rect x="1.49677" y="1.49826" width="36" height="19" rx="1.5" fill="#F4F4F4"/>
<path d="M13.5878 6.39826V7.51626H11.2608C11.0961 7.51626 10.9834 7.50326 10.9228 7.47726L10.9098 7.50326C10.9358 7.56393 10.9488 7.66793 10.9488 7.81526V15.4983H9.77877V7.81526C9.77877 7.66793 9.79177 7.56393 9.81777 7.50326L9.79177 7.47726C9.7311 7.50326 9.62277 7.51626 9.46677 7.51626H7.12677V6.39826H13.5878Z" fill="black"/>
<g clip-path="url(#clip0_392_14674)">
<path d="M25.6127 12.4454C25.5771 12.4229 25.5478 12.3917 25.5275 12.3548C25.5072 12.318 25.4965 12.2766 25.4965 12.2345V5.49945C25.4965 5.10163 25.3384 4.7201 25.0571 4.43879C24.7758 4.15749 24.3943 3.99945 23.9965 3.99945C23.5986 3.99945 23.2171 4.15749 22.9358 4.43879C22.6545 4.7201 22.4965 5.10163 22.4965 5.49945V12.2345C22.4964 12.2765 22.4857 12.3178 22.4655 12.3546C22.4452 12.3914 22.416 12.4225 22.3805 12.4451C21.9362 12.7345 21.5751 13.1349 21.3329 13.6066C21.0907 14.0783 20.9758 14.605 20.9996 15.1348C21.0353 15.9176 21.376 16.6554 21.9487 17.1903C22.5214 17.7252 23.2807 18.0148 24.0641 17.9971C24.8476 17.9794 25.593 17.6559 26.141 17.0957C26.689 16.5355 26.996 15.7831 26.9965 14.9995C26.9967 14.4922 26.8702 13.9929 26.6286 13.5469C26.3869 13.1009 26.0377 12.7223 25.6127 12.4454V12.4454Z" stroke="#868686" stroke-width="1.00189" stroke-miterlimit="10" stroke-linecap="round"/>
<path d="M23.9964 6.49985V14.9998" stroke="#868686" stroke-width="1.00189" stroke-miterlimit="10" stroke-linecap="round"/>
<path d="M23.9973 16.5005C24.8264 16.5005 25.4984 15.8285 25.4984 14.9994C25.4984 14.1704 24.8264 13.4983 23.9973 13.4983C23.1683 13.4983 22.4962 14.1704 22.4962 14.9994C22.4962 15.8285 23.1683 16.5005 23.9973 16.5005Z" fill="#868686"/>
</g>
<rect x="1.49677" y="1.49826" width="36" height="19" rx="1.5" stroke="#CCCCCC"/>
<defs>
<clipPath id="clip0_392_14674">
<rect width="16" height="16" fill="white" transform="translate(15.9968 2.99826)"/>
</clipPath>
</defs>
</svg>
