<svg xmlns="http://www.w3.org/2000/svg" width="508" height="151" fill="none" style=""><rect id="backgroundrect" width="100%" height="100%" x="0" y="0" fill="none" stroke="none"/>























































<defs>
<linearGradient id="paint0_linear_377_13802" x1="0.5000011097211021" y1="0" x2="0.5000011097211021" y2="1">
<stop/>
<stop offset="0.296875" stop-opacity="0"/>
<stop offset="0.692708" stop-opacity="0"/>
<stop offset="1"/>
</linearGradient>
<linearGradient id="paint1_linear_377_13802" x1="0.5000014620050748" y1="-0.008583931416822793" x2="0.5000014620050748" y2="1.008582415720943">
<stop/>
<stop offset="0.380208" stop-opacity="0"/>
<stop offset="0.625" stop-opacity="0"/>
<stop offset="1"/>
</linearGradient>
<linearGradient id="paint2_linear_377_13802" x1="0.5000012370812171" y1="-0.0085822944652728" x2="0.5000012370812171" y2="1.0085759891704136">
<stop/>
<stop offset="0.380208" stop-opacity="0"/>
<stop offset="0.625" stop-opacity="0"/>
<stop offset="1"/>
</linearGradient>
<linearGradient id="paint3_linear_377_13802" x1="0.5" y1="0" x2="0.5" y2="1">
<stop/>
<stop offset="0.296875" stop-opacity="0"/>
<stop offset="0.692708" stop-opacity="0"/>
<stop offset="1"/>
</linearGradient>
<linearGradient id="paint4_linear_377_13802" x1="0.5000012370812171" y1="-0.0085822944652728" x2="0.5000012370812171" y2="1.0085759891704136">
<stop/>
<stop offset="0.380208" stop-opacity="0"/>
<stop offset="0.625" stop-opacity="0"/>
<stop offset="1"/>
</linearGradient>
</defs>
<g class="currentLayer" style=""><title>Layer 1</title><path d="M0.825928 71.0743H481.865V100.074H0.825928V71.0743Z" fill="#E7E7E7" id="svg_1" class=""/><path d="M0.825928 71.0743H481.865V100.074H0.825928V71.0743Z" fill="url(#paint0_linear_377_13802)" fill-opacity="0.35" id="svg_2" class=""/><rect x="45.3661994934082" y="52.61709976196289" width="33.919898986816406" height="62.919898986816406" rx="1.6201800107955933" fill="#F0F0F0" id="svg_3"/><rect x="45.3661994934082" y="52.61709976196289" width="33.919898986816406" height="62.919898986816406" rx="1.6201800107955933" fill="url(#paint1_linear_377_13802)" fill-opacity="0.45" id="svg_4"/><rect x="45.3661994934082" y="52.61709976196289" width="33.919898986816406" height="62.919898986816406" rx="1.6201800107955933" stroke="#677272" stroke-width="1.08012" id="svg_5"/><rect x="117.82599639892578" y="23.074499130249023" width="59" height="100" rx="6.480730056762695" fill="#8D9595" id="svg_6"/><path d="M129.326 28.0745L132.121 29.7334L134.955 31.3245L134.916 34.5745L134.955 37.8245L132.121 39.4156L129.326 41.0745L126.531 39.4156L123.697 37.8245L123.736 34.5745L123.697 31.3245L126.531 29.7334L129.326 28.0745Z" fill="#677272" id="svg_7"/><circle cx="129.37899780273438" cy="34.62860107421875" r="2.561110019683838" fill="#B3B9B9" id="svg_8"/><path d="M129.326 105.075L132.121 106.733L134.955 108.325L134.916 111.575L134.955 114.825L132.121 116.416L129.326 118.075L126.531 116.416L123.697 114.825L123.736 111.575L123.697 108.325L126.531 106.733L129.326 105.075Z" fill="#677272" id="svg_9"/><circle cx="129.37899780273438" cy="111.62899780273438" r="2.561110019683838" fill="#B3B9B9" id="svg_10"/><path d="M165.326 28.0745L168.121 29.7334L170.955 31.3245L170.916 34.5745L170.955 37.8245L168.121 39.4156L165.326 41.0745L162.531 39.4156L159.697 37.8245L159.736 34.5745L159.697 31.3245L162.531 29.7334L165.326 28.0745Z" fill="#677272" id="svg_11"/><circle cx="165.37899780273438" cy="34.62860107421875" r="2.561110019683838" fill="#B3B9B9" id="svg_12"/><path d="M165.326 105.075L168.121 106.733L170.955 108.325L170.916 111.575L170.955 114.825L168.121 116.416L165.326 118.075L162.531 116.416L159.697 114.825L159.736 111.575L159.697 108.325L162.531 106.733L165.326 105.075Z" fill="#677272" id="svg_13"/><circle cx="165.37899780273438" cy="111.62899780273438" r="2.561110019683838" fill="#B3B9B9" id="svg_14"/><rect x="131.21200561523438" y="41.614498138427734" width="33.919898986816406" height="62.919898986816406" rx="1.6201800107955933" fill="#F0F0F0" id="svg_15"/><rect x="131.21200561523438" y="41.614498138427734" width="33.919898986816406" height="62.919898986816406" rx="1.6201800107955933" fill="url(#paint2_linear_377_13802)" fill-opacity="0.45" id="svg_16"/><rect x="131.21200561523438" y="41.614498138427734" width="33.919898986816406" height="62.919898986816406" rx="1.6201800107955933" stroke="#677272" stroke-width="1.08012" id="svg_17"/><path d="M148.309 53.9171C149.187 53.9171 149.868 54.1365 150.353 54.5751C150.839 55.0138 151.081 55.6205 151.081 56.3951C151.081 56.8618 150.983 57.3191 150.787 57.7671C150.591 58.2151 150.265 58.7331 149.807 59.3211L148.379 61.1831C148.118 61.5285 147.838 61.8271 147.539 62.0791L147.567 62.1211C147.875 62.0185 148.328 61.9671 148.925 61.9671H151.487L151.501 61.9951L150.591 63.5771H144.571L144.529 63.4791L148.435 58.4671C149.014 57.7205 149.303 57.1045 149.303 56.6191C149.303 56.2738 149.201 56.0078 148.995 55.8211C148.79 55.6251 148.505 55.5271 148.141 55.5271C147.507 55.5271 146.788 55.8165 145.985 56.3951L145.145 55.0371C146.2 54.2905 147.255 53.9171 148.309 53.9171Z" fill="#262626" id="svg_19"/><rect x="138.7519989013672" y="49.6108512878418" width="18.839799880981445" height="18.839799880981445" rx="3.2403600215911865" stroke="#484848" stroke-width="2.16024" id="svg_20" class="" stroke-opacity="1"/><rect x="448.82598876953125" y="23.074499130249023" width="59" height="100" rx="6.480730056762695" fill="#8D9595" id="svg_21" class=""/><path d="M460.326 28.0745L463.121 29.7334L465.955 31.3245L465.916 34.5745L465.955 37.8245L463.121 39.4156L460.326 41.0745L457.531 39.4156L454.697 37.8245L454.736 34.5745L454.697 31.3245L457.531 29.7334L460.326 28.0745Z" fill="#677272" id="svg_22" class=""/><circle cx="460.3789978027344" cy="34.62860107421875" r="2.561110019683838" fill="#B3B9B9" id="svg_23"/><path d="M460.326 105.075L463.121 106.733L465.955 108.325L465.916 111.575L465.955 114.825L463.121 116.416L460.326 118.075L457.531 116.416L454.697 114.825L454.736 111.575L454.697 108.325L457.531 106.733L460.326 105.075Z" fill="#677272" id="svg_24"/><circle cx="460.3789978027344" cy="111.62899780273438" r="2.561110019683838" fill="#B3B9B9" id="svg_25"/><path d="M496.326 28.0745L499.121 29.7334L501.955 31.3245L501.916 34.5745L501.955 37.8245L499.121 39.4156L496.326 41.0745L493.531 39.4156L490.697 37.8245L490.736 34.5745L490.697 31.3245L493.531 29.7334L496.326 28.0745Z" fill="#677272" id="svg_26"/><circle cx="496.3789978027344" cy="34.62860107421875" r="2.561110019683838" fill="#B3B9B9" id="svg_27"/><path d="M496.326 105.075L499.121 106.733L501.955 108.325L501.916 111.575L501.955 114.825L499.121 116.416L496.326 118.075L493.531 116.416L490.697 114.825L490.736 111.575L490.697 108.325L493.531 106.733L496.326 105.075Z" fill="#677272" id="svg_28"/><circle cx="496.3789978027344" cy="111.62899780273438" r="2.561110019683838" fill="#B3B9B9" id="svg_29"/><path d="M438.826 60.0745H495.826V89.0745H438.826V60.0745Z" fill="#E7E7E7" id="svg_30" class=""/><path d="M438.826 60.0745H495.826V89.0745H438.826V60.0745Z" fill="url(#paint3_linear_377_13802)" fill-opacity="0.35" id="svg_31" class=""/><rect x="461.3659973144531" y="41.614498138427734" width="33.919898986816406" height="62.919898986816406" rx="1.6201800107955933" fill="#F0F0F0" id="svg_32"/><rect x="461.3659973144531" y="41.614498138427734" width="33.919898986816406" height="62.919898986816406" rx="1.6201800107955933" fill="url(#paint4_linear_377_13802)" fill-opacity="0.45" id="svg_33"/><rect x="461.3659973144531" y="41.614498138427734" width="33.919898986816406" height="62.919898986816406" rx="1.6201800107955933" stroke="#677272" stroke-width="1.08012" id="svg_34" class=""/><path d="M479.606 52.1245V61.5745H477.926V55.9605C477.926 55.5031 477.964 55.1391 478.038 54.8685L477.996 54.8405C477.894 54.9898 477.73 55.1205 477.506 55.2325L476.26 55.8765V54.1965L478.024 52.9505L478.29 52.1245H479.606Z" fill="#262626" id="svg_36"/><rect x="197.8260040283203" y="1.0771499872207642" width="230" height="148" rx="9" fill="#E8EAEA" id="svg_38" class=""/><rect width="212" height="22" fill="white" fill-opacity="0.5" y="10.077099800109863" x="206.8260040283203" id="svg_39" class=""/><path d="M269.73 15.2771V16.4671H265.81C265.66 16.4671 265.544 16.4485 265.46 16.4111L265.432 16.4391C265.46 16.5045 265.474 16.6211 265.474 16.7891V25.0771H264.214V15.2771H269.73ZM274.404 18.6091V25.0771H273.214V20.0371C273.214 19.9158 273.237 19.7945 273.284 19.6731L273.27 19.6591C273.195 19.6965 273.064 19.7151 272.878 19.7151H270.89C270.712 19.7151 270.582 19.6965 270.498 19.6591L270.484 19.6731C270.53 19.7665 270.554 19.8878 270.554 20.0371V23.0331C270.554 24.4238 269.905 25.1191 268.608 25.1191H268.048V24.0411H268.594C268.874 24.0411 269.074 23.9618 269.196 23.8031C269.317 23.6351 269.378 23.3645 269.378 22.9911V18.6091H274.404ZM278.762 18.3991C279.686 18.3991 280.363 18.6091 280.792 19.0291C281.231 19.4491 281.45 20.1071 281.45 21.0031V25.0771H280.246C280.246 24.7131 280.302 24.3491 280.414 23.9851L280.372 23.9571C279.887 24.8438 279.131 25.2871 278.104 25.2871C277.386 25.2871 276.807 25.0771 276.368 24.6571C275.93 24.2371 275.71 23.6865 275.71 23.0051C275.71 22.3051 275.93 21.7498 276.368 21.3391C276.807 20.9285 277.39 20.7231 278.118 20.7231C279.164 20.7231 279.91 21.1151 280.358 21.8991L280.4 21.8711C280.344 21.6845 280.307 21.3625 280.288 20.9051C280.251 19.9718 279.714 19.5051 278.678 19.5051C278.137 19.5051 277.488 19.6265 276.732 19.8691L276.396 18.7911C277.208 18.5298 277.997 18.3991 278.762 18.3991ZM278.51 21.7171C278.053 21.7171 277.68 21.8385 277.39 22.0811C277.11 22.3238 276.97 22.6365 276.97 23.0191C276.97 23.4111 277.11 23.7238 277.39 23.9571C277.67 24.1811 278.044 24.2931 278.51 24.2931C278.986 24.2931 279.383 24.1718 279.7 23.9291C280.018 23.6865 280.176 23.3785 280.176 23.0051C280.176 22.6318 280.018 22.3238 279.7 22.0811C279.383 21.8385 278.986 21.7171 278.51 21.7171ZM287.693 21.8431C288.337 22.0391 288.659 22.5245 288.659 23.2991C288.659 23.8405 288.468 24.2745 288.085 24.6011C287.703 24.9185 287.203 25.0771 286.587 25.0771H283.255V18.6091H286.559C287.166 18.6091 287.633 18.7491 287.959 19.0291C288.295 19.3091 288.463 19.7011 288.463 20.2051C288.463 20.8398 288.211 21.2738 287.707 21.5071C287.493 21.6098 287.217 21.6705 286.881 21.6891V21.7451C287.199 21.7545 287.469 21.7871 287.693 21.8431ZM284.375 19.6451C284.422 19.7385 284.445 19.8691 284.445 20.0371V20.9751C284.445 21.1058 284.422 21.2318 284.375 21.3531L284.389 21.3671C284.464 21.3298 284.59 21.3111 284.767 21.3111H286.125C286.452 21.3111 286.704 21.2365 286.881 21.0871C287.059 20.9285 287.147 20.7185 287.147 20.4571C287.147 19.9438 286.83 19.6871 286.195 19.6871H284.781C284.595 19.6871 284.464 19.6685 284.389 19.6311L284.375 19.6451ZM286.363 23.9991C287.017 23.9991 287.343 23.7051 287.343 23.1171C287.343 22.5291 286.993 22.2351 286.293 22.2351H284.767C284.59 22.2351 284.464 22.2118 284.389 22.1651L284.375 22.1791C284.422 22.3005 284.445 22.4265 284.445 22.5571V23.6771C284.445 23.7985 284.422 23.9198 284.375 24.0411L284.389 24.0551C284.464 24.0178 284.595 23.9991 284.781 23.9991H286.363ZM294.782 18.6091H295.972V25.0771H294.782V22.4871C294.782 22.3378 294.805 22.2165 294.852 22.1231L294.838 22.1091C294.763 22.1465 294.633 22.1651 294.446 22.1651H291.576C291.399 22.1651 291.273 22.1465 291.198 22.1091L291.184 22.1231C291.231 22.2165 291.254 22.3378 291.254 22.4871V25.0771H290.064V18.6091H291.254V20.7371C291.254 20.8958 291.231 21.0218 291.184 21.1151L291.198 21.1291C291.273 21.0918 291.399 21.0731 291.576 21.0731H294.446C294.633 21.0731 294.763 21.0918 294.838 21.1291L294.852 21.1151C294.805 21.0218 294.782 20.8958 294.782 20.7371V18.6091ZM300.769 20.9331C301.451 20.9331 301.992 21.1198 302.393 21.4931C302.795 21.8571 302.995 22.3611 302.995 23.0051C302.995 23.6305 302.785 24.1345 302.365 24.5171C301.955 24.8905 301.418 25.0771 300.755 25.0771H297.843V18.6091H299.033V20.6111C299.033 20.7325 299.01 20.8538 298.963 20.9751L298.977 20.9891C299.052 20.9518 299.178 20.9331 299.355 20.9331H300.769ZM303.569 18.6091H304.759V25.0771H303.569V18.6091ZM300.671 23.9711C301.007 23.9711 301.269 23.8871 301.455 23.7191C301.651 23.5511 301.749 23.3178 301.749 23.0191C301.749 22.7111 301.656 22.4731 301.469 22.3051C301.283 22.1278 301.017 22.0391 300.671 22.0391H299.355C299.178 22.0391 299.052 22.0205 298.977 21.9831L298.963 21.9971C299.01 22.1185 299.033 22.2398 299.033 22.3611V23.6491C299.033 23.7705 299.01 23.8918 298.963 24.0131L298.977 24.0271C299.052 23.9898 299.183 23.9711 299.369 23.9711H300.671ZM311.534 15.9071C311.534 16.5418 311.357 17.0411 311.002 17.4051C310.648 17.7598 310.186 17.9371 309.616 17.9371C309.038 17.9371 308.571 17.7598 308.216 17.4051C307.862 17.0411 307.684 16.5418 307.684 15.9071H308.538C308.566 16.7098 308.926 17.1111 309.616 17.1111C310.307 17.1111 310.666 16.7098 310.694 15.9071H311.534ZM306.634 25.1751V18.6091H307.824V21.4091C307.824 22.0251 307.801 22.5665 307.754 23.0331L307.796 23.0471C307.936 22.7578 308.179 22.4311 308.524 22.0671L311.954 18.5111H312.304V25.0771H311.128V22.2771C311.128 21.6611 311.152 21.1198 311.198 20.6531L311.142 20.6391C311.03 20.8911 310.792 21.2178 310.428 21.6191L306.998 25.1751H306.634ZM324.033 18.6091V25.0771H322.843V20.0371C322.843 19.8878 322.866 19.7665 322.913 19.6731L322.899 19.6591C322.824 19.6965 322.693 19.7151 322.507 19.7151H319.903C319.716 19.7151 319.585 19.6965 319.511 19.6591L319.497 19.6731C319.543 19.7665 319.567 19.8878 319.567 20.0371V25.0771H318.377V18.6091H324.033ZM329.483 18.3991C330.417 18.3991 331.177 18.7211 331.765 19.3651C332.353 20.0091 332.647 20.8351 332.647 21.8431C332.647 22.8511 332.353 23.6771 331.765 24.3211C331.177 24.9651 330.417 25.2871 329.483 25.2871C328.289 25.2871 327.444 24.7505 326.949 23.6771L326.893 23.6911C326.987 24.0085 327.033 24.4658 327.033 25.0631V27.8771H325.843V18.6091H326.991C326.991 19.2625 326.963 19.7291 326.907 20.0091L326.963 20.0231C327.458 18.9405 328.298 18.3991 329.483 18.3991ZM329.259 19.5191C328.587 19.5191 328.037 19.7385 327.607 20.1771C327.187 20.6065 326.977 21.1618 326.977 21.8431C326.977 22.5338 327.187 23.0938 327.607 23.5231C328.037 23.9525 328.592 24.1671 329.273 24.1671C329.927 24.1671 330.445 23.9618 330.827 23.5511C331.21 23.1311 331.401 22.5618 331.401 21.8431C331.401 21.1338 331.21 20.5691 330.827 20.1491C330.445 19.7291 329.922 19.5191 329.259 19.5191ZM334.046 25.1751V18.6091H335.236V21.4091C335.236 22.0251 335.213 22.5665 335.166 23.0331L335.208 23.0471C335.348 22.7578 335.591 22.4311 335.936 22.0671L339.366 18.5111H339.716V25.0771H338.54V22.2771C338.54 21.6611 338.564 21.1198 338.61 20.6531L338.554 20.6391C338.442 20.8911 338.204 21.2178 337.84 21.6191L334.41 25.1751H334.046ZM346.031 21.8431C346.675 22.0391 346.997 22.5245 346.997 23.2991C346.997 23.8405 346.806 24.2745 346.423 24.6011C346.041 24.9185 345.541 25.0771 344.925 25.0771H341.593V18.6091H344.897C345.504 18.6091 345.971 18.7491 346.297 19.0291C346.633 19.3091 346.801 19.7011 346.801 20.2051C346.801 20.8398 346.549 21.2738 346.045 21.5071C345.831 21.6098 345.555 21.6705 345.219 21.6891V21.7451C345.537 21.7545 345.807 21.7871 346.031 21.8431ZM342.713 19.6451C342.76 19.7385 342.783 19.8691 342.783 20.0371V20.9751C342.783 21.1058 342.76 21.2318 342.713 21.3531L342.727 21.3671C342.802 21.3298 342.928 21.3111 343.105 21.3111H344.463C344.79 21.3111 345.042 21.2365 345.219 21.0871C345.397 20.9285 345.485 20.7185 345.485 20.4571C345.485 19.9438 345.168 19.6871 344.533 19.6871H343.119C342.933 19.6871 342.802 19.6685 342.727 19.6311L342.713 19.6451ZM344.701 23.9991C345.355 23.9991 345.681 23.7051 345.681 23.1171C345.681 22.5291 345.331 22.2351 344.631 22.2351H343.105C342.928 22.2351 342.802 22.2118 342.727 22.1651L342.713 22.1791C342.76 22.3005 342.783 22.4265 342.783 22.5571V23.6771C342.783 23.7985 342.76 23.9198 342.713 24.0411L342.727 24.0551C342.802 24.0178 342.933 23.9991 343.119 23.9991H344.701ZM348.92 19.3791C349.592 18.7258 350.437 18.3991 351.454 18.3991C352.471 18.3991 353.311 18.7258 353.974 19.3791C354.637 20.0231 354.968 20.8445 354.968 21.8431C354.968 22.8418 354.637 23.6678 353.974 24.3211C353.311 24.9651 352.471 25.2871 351.454 25.2871C350.437 25.2871 349.592 24.9651 348.92 24.3211C348.257 23.6678 347.926 22.8418 347.926 21.8431C347.926 20.8445 348.257 20.0231 348.92 19.3791ZM353.092 20.1911C352.672 19.7711 352.126 19.5611 351.454 19.5611C350.782 19.5611 350.236 19.7711 349.816 20.1911C349.396 20.6111 349.186 21.1618 349.186 21.8431C349.186 22.5245 349.396 23.0751 349.816 23.4951C350.236 23.9151 350.782 24.1251 351.454 24.1251C352.126 24.1251 352.672 23.9151 353.092 23.4951C353.512 23.0751 353.722 22.5245 353.722 21.8431C353.722 21.1618 353.512 20.6111 353.092 20.1911ZM355.233 27.0371V23.9851H355.751C355.901 23.9851 356.013 24.0038 356.087 24.0411L356.101 24.0271C356.092 23.9338 356.12 23.8171 356.185 23.6771C356.811 22.5105 357.123 21.2645 357.123 19.9391V18.6091H361.449V23.6631C361.449 23.7845 361.426 23.9058 361.379 24.0271L361.393 24.0411C361.468 24.0038 361.599 23.9851 361.785 23.9851H362.191V27.0371H361.113V25.4131C361.113 25.2918 361.137 25.1705 361.183 25.0491L361.169 25.0351C361.085 25.0725 360.955 25.0911 360.777 25.0911H356.661C356.484 25.0911 356.353 25.0725 356.269 25.0351L356.255 25.0491C356.302 25.1425 356.325 25.2638 356.325 25.4131V27.0371H355.233ZM357.235 24.0551C357.329 24.0085 357.464 23.9851 357.641 23.9851H359.993C360.18 23.9851 360.311 24.0038 360.385 24.0411L360.399 24.0271C360.353 23.9058 360.329 23.7845 360.329 23.6631V19.9951C360.329 19.8738 360.353 19.7525 360.399 19.6311L360.385 19.6171C360.311 19.6545 360.18 19.6731 359.993 19.6731H358.579C358.402 19.6731 358.271 19.6545 358.187 19.6171L358.173 19.6311C358.22 19.7245 358.243 19.8458 358.243 19.9951V20.3871C358.243 21.0311 358.141 21.7125 357.935 22.4311C357.739 23.1405 357.501 23.6725 357.221 24.0271L357.235 24.0551Z" fill="#262626" id="svg_40"/><path d="M213.09 49.6771V51.1051H211.074C210.93 51.1051 210.826 51.0891 210.762 51.0571L210.738 51.0811C210.762 51.1371 210.774 51.2451 210.774 51.4051V58.0771H209.238V51.4051C209.238 51.2691 209.254 51.1611 209.286 51.0811L209.262 51.0571C209.19 51.0891 209.086 51.1051 208.95 51.1051H206.922V49.6771H213.09ZM213.112 53.1811C213.696 52.6291 214.432 52.3531 215.32 52.3531C216.208 52.3531 216.94 52.6291 217.516 53.1811C218.1 53.7331 218.392 54.4411 218.392 55.3051C218.392 56.1691 218.1 56.8771 217.516 57.4291C216.94 57.9811 216.208 58.2571 215.32 58.2571C214.432 58.2571 213.696 57.9811 213.112 57.4291C212.536 56.8771 212.248 56.1691 212.248 55.3051C212.248 54.4411 212.536 53.7331 213.112 53.1811ZM216.448 54.1771C216.16 53.8891 215.784 53.7451 215.32 53.7451C214.856 53.7451 214.48 53.8891 214.192 54.1771C213.904 54.4571 213.76 54.8331 213.76 55.3051C213.76 55.7771 213.904 56.1571 214.192 56.4451C214.48 56.7251 214.856 56.8651 215.32 56.8651C215.784 56.8651 216.16 56.7251 216.448 56.4451C216.736 56.1571 216.88 55.7771 216.88 55.3051C216.88 54.8331 216.736 54.4571 216.448 54.1771ZM223.748 58.1131C223.14 58.1131 222.76 57.8731 222.608 57.3931L222.332 56.4691C222.268 56.2131 222.184 56.0331 222.08 55.9291C221.976 55.8171 221.828 55.7611 221.636 55.7611H221.228C221.076 55.7611 220.952 55.7531 220.856 55.7371L220.844 55.7491C220.884 55.8691 220.904 56.0371 220.904 56.2531V58.0771H219.44V52.5331H220.904V54.1411C220.904 54.3411 220.884 54.5011 220.844 54.6211L220.856 54.6331C220.952 54.6171 221.076 54.6091 221.228 54.6091H221.636C221.828 54.6091 221.972 54.5691 222.068 54.4891C222.172 54.4011 222.268 54.2371 222.356 53.9971L222.728 53.1091C222.888 52.7011 223.256 52.4971 223.832 52.4971H224.6V53.7211H224.42C224.244 53.7211 224.108 53.7451 224.012 53.7931C223.924 53.8411 223.848 53.9331 223.784 54.0691L223.604 54.5251C223.524 54.7411 223.392 54.9011 223.208 55.0051C223.032 55.1011 222.76 55.1531 222.392 55.1611V55.2091C222.776 55.2171 223.056 55.2771 223.232 55.3891C223.408 55.4931 223.532 55.6651 223.604 55.9051L223.82 56.5531C223.884 56.6891 223.948 56.7811 224.012 56.8291C224.084 56.8691 224.2 56.8891 224.36 56.8891H224.6V58.1131H223.748ZM225.318 60.0811L225.762 56.8771H226.974L225.894 60.0811H225.318ZM231.193 58.0771L235.117 49.4971H235.237L239.161 58.0771H237.949L236.905 55.7251H233.449L232.405 58.0771H231.193ZM233.749 54.8251C233.893 54.8091 234.117 54.8011 234.421 54.8011H235.933C236.237 54.8011 236.461 54.8091 236.605 54.8251L236.617 54.8131C236.497 54.6611 236.373 54.4331 236.245 54.1291L235.501 52.3771C235.325 51.9211 235.225 51.5931 235.201 51.3931H235.153C235.129 51.5931 235.029 51.9211 234.853 52.3771L234.109 54.1291C233.981 54.4331 233.857 54.6611 233.737 54.8131L233.749 54.8251Z" fill="black" id="svg_41"/><rect x="384.82598876953125" y="44.07709884643555" width="34" height="20" rx="4" fill="#414F4F" id="svg_42" class=""/><path d="M213.09 72.6771V74.1051H211.074C210.93 74.1051 210.826 74.0891 210.762 74.0571L210.738 74.0811C210.762 74.1371 210.774 74.2451 210.774 74.4051V81.0771H209.238V74.4051C209.238 74.2691 209.254 74.1611 209.286 74.0811L209.262 74.0571C209.19 74.0891 209.086 74.1051 208.95 74.1051H206.922V72.6771H213.09ZM213.112 76.1811C213.696 75.6291 214.432 75.3531 215.32 75.3531C216.208 75.3531 216.94 75.6291 217.516 76.1811C218.1 76.7331 218.392 77.4411 218.392 78.3051C218.392 79.1691 218.1 79.8771 217.516 80.4291C216.94 80.9811 216.208 81.2571 215.32 81.2571C214.432 81.2571 213.696 80.9811 213.112 80.4291C212.536 79.8771 212.248 79.1691 212.248 78.3051C212.248 77.4411 212.536 76.7331 213.112 76.1811ZM216.448 77.1771C216.16 76.8891 215.784 76.7451 215.32 76.7451C214.856 76.7451 214.48 76.8891 214.192 77.1771C213.904 77.4571 213.76 77.8331 213.76 78.3051C213.76 78.7771 213.904 79.1571 214.192 79.4451C214.48 79.7251 214.856 79.8651 215.32 79.8651C215.784 79.8651 216.16 79.7251 216.448 79.4451C216.736 79.1571 216.88 78.7771 216.88 78.3051C216.88 77.8331 216.736 77.4571 216.448 77.1771ZM223.748 81.1131C223.14 81.1131 222.76 80.8731 222.608 80.3931L222.332 79.4691C222.268 79.2131 222.184 79.0331 222.08 78.9291C221.976 78.8171 221.828 78.7611 221.636 78.7611H221.228C221.076 78.7611 220.952 78.7531 220.856 78.7371L220.844 78.7491C220.884 78.8691 220.904 79.0371 220.904 79.2531V81.0771H219.44V75.5331H220.904V77.1411C220.904 77.3411 220.884 77.5011 220.844 77.6211L220.856 77.6331C220.952 77.6171 221.076 77.6091 221.228 77.6091H221.636C221.828 77.6091 221.972 77.5691 222.068 77.4891C222.172 77.4011 222.268 77.2371 222.356 76.9971L222.728 76.1091C222.888 75.7011 223.256 75.4971 223.832 75.4971H224.6V76.7211H224.42C224.244 76.7211 224.108 76.7451 224.012 76.7931C223.924 76.8411 223.848 76.9331 223.784 77.0691L223.604 77.5251C223.524 77.7411 223.392 77.9011 223.208 78.0051C223.032 78.1011 222.76 78.1531 222.392 78.1611V78.2091C222.776 78.2171 223.056 78.2771 223.232 78.3891C223.408 78.4931 223.532 78.6651 223.604 78.9051L223.82 79.5531C223.884 79.6891 223.948 79.7811 224.012 79.8291C224.084 79.8691 224.2 79.8891 224.36 79.8891H224.6V81.1131H223.748ZM228.345 82.7571V79.8651H228.861C228.981 79.8651 229.077 79.8811 229.149 79.9131L229.161 79.9011C229.153 79.8291 229.177 79.7291 229.233 79.6011C229.697 78.7531 229.929 77.7691 229.929 76.6491V75.5331H234.141V79.5891C234.141 79.6931 234.121 79.7971 234.081 79.9011L234.093 79.9131C234.165 79.8811 234.277 79.8651 234.429 79.8651H234.885V82.7571H233.553V81.4131C233.553 81.3091 233.573 81.2051 233.613 81.1011L233.601 81.0891C233.529 81.1211 233.417 81.1371 233.265 81.1371H229.965C229.813 81.1371 229.701 81.1211 229.629 81.0891L229.617 81.1011C229.657 81.1811 229.677 81.2851 229.677 81.4131V82.7571H228.345ZM230.565 79.9251C230.645 79.8851 230.765 79.8651 230.925 79.8651H232.461C232.613 79.8651 232.725 79.8811 232.797 79.9131L232.809 79.9011C232.769 79.8211 232.749 79.7171 232.749 79.5891V77.0571C232.749 76.9291 232.769 76.8251 232.809 76.7451L232.797 76.7331C232.725 76.7651 232.613 76.7811 232.461 76.7811H231.549C231.397 76.7811 231.285 76.7651 231.213 76.7331L231.201 76.7451C231.241 76.8251 231.261 76.9291 231.261 77.0571V77.3211C231.261 77.7611 231.193 78.2291 231.057 78.7251C230.921 79.2131 230.753 79.6051 230.553 79.9011L230.565 79.9251ZM239.976 78.3051C240.512 78.4651 240.78 78.8771 240.78 79.5411C240.78 80.0291 240.604 80.4091 240.252 80.6811C239.908 80.9451 239.468 81.0771 238.932 81.0771H235.812V75.5331H238.944C240.056 75.5331 240.612 75.9851 240.612 76.8891C240.612 77.4251 240.4 77.7931 239.976 77.9931C239.776 78.0971 239.492 78.1531 239.124 78.1611V78.2091C239.484 78.2091 239.768 78.2411 239.976 78.3051ZM237.216 76.6731C237.256 76.7451 237.276 76.8531 237.276 76.9971V77.4651C237.276 77.5931 237.256 77.6971 237.216 77.7771L237.228 77.7891C237.3 77.7571 237.412 77.7411 237.564 77.7411H238.464C238.864 77.7411 239.064 77.5611 239.064 77.2011C239.064 76.8731 238.86 76.7091 238.452 76.7091H237.564C237.412 76.7091 237.3 76.6931 237.228 76.6611L237.216 76.6731ZM238.584 79.9011C239.016 79.9011 239.232 79.7051 239.232 79.3131C239.232 78.9371 239.016 78.7491 238.584 78.7491H237.564C237.412 78.7491 237.3 78.7331 237.228 78.7011L237.216 78.7131C237.256 78.7931 237.276 78.8931 237.276 79.0131V79.6251C237.276 79.7531 237.256 79.8571 237.216 79.9371L237.228 79.9491C237.3 79.9171 237.412 79.9011 237.564 79.9011H238.584ZM241.823 81.1491V75.5331H243.287V77.4051C243.287 77.9811 243.259 78.4131 243.203 78.7011L243.251 78.7131C243.355 78.5131 243.567 78.2651 243.887 77.9691L246.599 75.4611H247.019V81.0771H245.543V79.2051C245.543 78.6291 245.571 78.1971 245.627 77.9091L245.579 77.8971C245.475 78.0971 245.263 78.3451 244.943 78.6411L242.231 81.1491H241.823ZM248.421 81.0771V75.5331H252.201V76.8531H250.173C250.013 76.8531 249.901 76.8371 249.837 76.8051L249.825 76.8171C249.865 76.8971 249.885 77.0011 249.885 77.1291V81.0771H248.421ZM254.979 75.3531C255.859 75.3531 256.495 75.5291 256.887 75.8811C257.279 76.2331 257.475 76.8011 257.475 77.5851V81.0771H255.987C255.987 80.7011 256.047 80.3731 256.167 80.0931L256.119 80.0691C255.711 80.8611 255.075 81.2571 254.211 81.2571C253.619 81.2571 253.139 81.0811 252.771 80.7291C252.411 80.3691 252.231 79.8971 252.231 79.3131C252.231 78.7291 252.411 78.2651 252.771 77.9211C253.139 77.5691 253.627 77.3931 254.235 77.3931C255.083 77.3931 255.703 77.7131 256.095 78.3531L256.143 78.3291C256.079 78.1371 256.047 77.8651 256.047 77.5131C256.007 76.9211 255.599 76.6251 254.823 76.6251C254.391 76.6251 253.843 76.7051 253.179 76.8651L252.891 75.6291C253.611 75.4451 254.307 75.3531 254.979 75.3531ZM254.799 78.4011C254.503 78.4011 254.263 78.4811 254.079 78.6411C253.895 78.8011 253.803 79.0091 253.803 79.2651C253.803 79.5211 253.891 79.7291 254.067 79.8891C254.251 80.0411 254.491 80.1171 254.787 80.1171C255.091 80.1171 255.339 80.0371 255.531 79.8771C255.723 79.7171 255.819 79.5091 255.819 79.2531C255.819 79.0051 255.723 78.8011 255.531 78.6411C255.347 78.4811 255.103 78.4011 254.799 78.4011ZM257.91 75.5331H263.202V76.8531H261.582C261.422 76.8531 261.31 76.8371 261.246 76.8051L261.234 76.8171C261.274 76.8971 261.294 77.0011 261.294 77.1291V81.0771H259.818V77.1291C259.818 77.0011 259.838 76.8971 259.878 76.8171L259.866 76.8051C259.802 76.8371 259.69 76.8531 259.53 76.8531H257.91V75.5331ZM266.257 75.3531C267.097 75.3531 267.757 75.6131 268.237 76.1331C268.717 76.6531 268.957 77.3731 268.957 78.2931V78.6411H265.525C265.189 78.6411 264.957 78.6011 264.829 78.5211L264.805 78.5571L264.853 78.6891C264.989 79.5371 265.509 79.9611 266.413 79.9611C267.029 79.9611 267.577 79.7411 268.057 79.3011L268.729 80.3571C268.065 80.9571 267.293 81.2571 266.413 81.2571C265.501 81.2571 264.769 80.9931 264.217 80.4651C263.665 79.9291 263.389 79.2131 263.389 78.3171C263.389 77.4211 263.653 76.7051 264.181 76.1691C264.709 75.6251 265.401 75.3531 266.257 75.3531ZM266.209 76.5531C265.833 76.5531 265.521 76.6611 265.273 76.8771C265.025 77.0851 264.877 77.3731 264.829 77.7411L264.853 77.7651C264.965 77.6931 265.165 77.6571 265.453 77.6571H266.761C267.145 77.6571 267.373 77.6891 267.445 77.7531L267.469 77.7291C267.445 77.3531 267.321 77.0651 267.097 76.8651C266.873 76.6571 266.577 76.5531 266.209 76.5531ZM274.992 75.5331V81.0771H273.516V77.1291C273.516 77.0251 273.536 76.9211 273.576 76.8171L273.564 76.8051C273.492 76.8371 273.38 76.8531 273.228 76.8531H272.028C271.868 76.8531 271.756 76.8371 271.692 76.8051L271.68 76.8171C271.72 76.9211 271.74 77.0251 271.74 77.1291V79.0731C271.74 80.4251 271.08 81.1011 269.76 81.1011H269.184V79.7931H269.628C269.852 79.7931 270.012 79.7331 270.108 79.6131C270.212 79.4851 270.264 79.2691 270.264 78.9651V75.5331H274.992ZM281.182 75.5331V81.0771H279.706V79.3731C279.706 79.2451 279.726 79.1411 279.766 79.0611L279.754 79.0491C279.698 79.0811 279.586 79.0971 279.418 79.0971H279.226L277.582 81.0771H275.818V81.0171L277.126 79.5891C277.366 79.3171 277.598 79.1291 277.822 79.0251V78.9891C277.646 79.0211 277.506 79.0171 277.402 78.9771C277.002 78.8811 276.694 78.6851 276.478 78.3891C276.27 78.0851 276.166 77.7331 276.166 77.3331C276.166 76.7651 276.342 76.3251 276.694 76.0131C277.054 75.6931 277.558 75.5331 278.206 75.5331H281.182ZM279.766 78.0651C279.726 77.9851 279.706 77.8811 279.706 77.7531V76.9731C279.706 76.8451 279.726 76.7411 279.766 76.6611L279.754 76.6491C279.682 76.6811 279.57 76.6971 279.418 76.6971H278.566C278.006 76.6971 277.726 76.9171 277.726 77.3571C277.726 77.8051 278.006 78.0291 278.566 78.0291H279.418C279.586 78.0291 279.698 78.0451 279.754 78.0771L279.766 78.0651ZM282.365 83.0811L282.809 79.8771H284.021L282.941 83.0811H282.365ZM288.239 81.0771L292.163 72.4971H292.283L296.207 81.0771H294.995L293.951 78.7251H290.495L289.451 81.0771H288.239ZM290.795 77.8251C290.939 77.8091 291.163 77.8011 291.467 77.8011H292.979C293.283 77.8011 293.507 77.8091 293.651 77.8251L293.663 77.8131C293.543 77.6611 293.419 77.4331 293.291 77.1291L292.547 75.3771C292.371 74.9211 292.271 74.5931 292.247 74.3931H292.199C292.175 74.5931 292.075 74.9211 291.899 75.3771L291.155 77.1291C291.027 77.4331 290.903 77.6611 290.783 77.8131L290.795 77.8251Z" fill="black" id="svg_44"/><rect x="384.82598876953125" y="67.07710266113281" width="34" height="20" rx="4" fill="#414F4F" id="svg_45" class=""/><path d="M214.662 95.6771V104.077H213.126V100.657C213.126 100.489 213.142 100.377 213.174 100.321L213.15 100.297C213.07 100.337 212.962 100.357 212.826 100.357H209.502C209.374 100.357 209.27 100.337 209.19 100.297L209.166 100.321C209.198 100.401 209.214 100.513 209.214 100.657V104.077H207.678V95.6771H209.214V98.6171C209.214 98.7611 209.198 98.8731 209.166 98.9531L209.19 98.9771C209.254 98.9451 209.358 98.9291 209.502 98.9291H212.826C212.978 98.9291 213.086 98.9451 213.15 98.9771L213.174 98.9531C213.142 98.8971 213.126 98.7851 213.126 98.6171V95.6771H214.662ZM218.546 98.3531C219.426 98.3531 220.062 98.5291 220.454 98.8811C220.846 99.2331 221.042 99.8011 221.042 100.585V104.077H219.554C219.554 103.701 219.614 103.373 219.734 103.093L219.686 103.069C219.278 103.861 218.642 104.257 217.778 104.257C217.186 104.257 216.706 104.081 216.338 103.729C215.978 103.369 215.798 102.897 215.798 102.313C215.798 101.729 215.978 101.265 216.338 100.921C216.706 100.569 217.194 100.393 217.802 100.393C218.65 100.393 219.27 100.713 219.662 101.353L219.71 101.329C219.646 101.137 219.614 100.865 219.614 100.513C219.574 99.9211 219.166 99.6251 218.39 99.6251C217.958 99.6251 217.41 99.7051 216.746 99.8651L216.458 98.6291C217.178 98.4451 217.874 98.3531 218.546 98.3531ZM218.366 101.401C218.07 101.401 217.83 101.481 217.646 101.641C217.462 101.801 217.37 102.009 217.37 102.265C217.37 102.521 217.458 102.729 217.634 102.889C217.818 103.041 218.058 103.117 218.354 103.117C218.658 103.117 218.906 103.037 219.098 102.877C219.29 102.717 219.386 102.509 219.386 102.253C219.386 102.005 219.29 101.801 219.098 101.641C218.914 101.481 218.67 101.401 218.366 101.401ZM227.614 98.5331V104.077H226.138V100.129C226.138 100.001 226.158 99.8971 226.198 99.8171L226.186 99.8051C226.122 99.8371 226.01 99.8531 225.85 99.8531H224.11C223.95 99.8531 223.838 99.8371 223.774 99.8051L223.762 99.8171C223.802 99.8971 223.822 100.001 223.822 100.129V104.077H222.346V98.5331H227.614ZM232.411 98.3531C233.187 98.3531 233.819 98.6251 234.307 99.1691C234.795 99.7131 235.039 100.425 235.039 101.305C235.039 102.185 234.795 102.897 234.307 103.441C233.827 103.985 233.199 104.257 232.423 104.257C231.439 104.257 230.759 103.809 230.383 102.913L230.335 102.925C230.407 103.277 230.443 103.653 230.443 104.053V106.477H228.991V98.5331H230.431C230.431 99.0131 230.395 99.3971 230.323 99.6851L230.371 99.6971C230.803 98.8011 231.483 98.3531 232.411 98.3531ZM231.991 99.6971C231.519 99.6971 231.135 99.8451 230.839 100.141C230.543 100.437 230.395 100.825 230.395 101.305C230.395 101.785 230.543 102.173 230.839 102.469C231.135 102.765 231.519 102.913 231.991 102.913C232.463 102.913 232.831 102.769 233.095 102.481C233.367 102.193 233.503 101.801 233.503 101.305C233.503 100.809 233.367 100.417 233.095 100.129C232.823 99.8411 232.455 99.6971 231.991 99.6971ZM240.729 98.5331V104.077H239.253V102.373C239.253 102.245 239.273 102.141 239.313 102.061L239.301 102.049C239.245 102.081 239.133 102.097 238.965 102.097H238.773L237.129 104.077H235.365V104.017L236.673 102.589C236.913 102.317 237.145 102.129 237.369 102.025V101.989C237.193 102.021 237.053 102.017 236.949 101.977C236.549 101.881 236.241 101.685 236.025 101.389C235.817 101.085 235.713 100.733 235.713 100.333C235.713 99.7651 235.889 99.3251 236.241 99.0131C236.601 98.6931 237.105 98.5331 237.753 98.5331H240.729ZM239.313 101.065C239.273 100.985 239.253 100.881 239.253 100.753V99.9731C239.253 99.8451 239.273 99.7411 239.313 99.6611L239.301 99.6491C239.229 99.6811 239.117 99.6971 238.965 99.6971H238.113C237.553 99.6971 237.273 99.9171 237.273 100.357C237.273 100.805 237.553 101.029 238.113 101.029H238.965C239.133 101.029 239.245 101.045 239.301 101.077L239.313 101.065ZM241.648 104.113V102.913H241.888C242.032 102.913 242.14 102.889 242.212 102.841C242.284 102.793 242.352 102.697 242.416 102.553L242.62 101.905C242.7 101.665 242.828 101.493 243.004 101.389C243.188 101.277 243.472 101.217 243.856 101.209V101.161C243.48 101.153 243.2 101.097 243.016 100.993C242.832 100.889 242.704 100.733 242.632 100.525L242.452 100.069C242.38 99.9251 242.304 99.8291 242.224 99.7811C242.144 99.7251 242.032 99.6971 241.888 99.6971H241.648V98.4971H242.416C242.968 98.4971 243.332 98.7011 243.508 99.1091L243.88 99.9971C243.976 100.237 244.068 100.401 244.156 100.489C244.252 100.569 244.392 100.609 244.576 100.609H244.744C244.912 100.609 245.036 100.617 245.116 100.633L245.128 100.621C245.088 100.461 245.068 100.301 245.068 100.141V98.5331H246.412V100.141C246.412 100.341 246.392 100.501 246.352 100.621L246.364 100.633C246.444 100.617 246.568 100.609 246.736 100.609H246.904C247.096 100.609 247.236 100.569 247.324 100.489C247.42 100.401 247.516 100.237 247.612 99.9971L247.984 99.1091C248.152 98.7011 248.516 98.4971 249.076 98.4971H249.844V99.6971H249.604C249.452 99.6971 249.336 99.7251 249.256 99.7811C249.176 99.8291 249.104 99.9251 249.04 100.069L248.86 100.525C248.78 100.741 248.648 100.901 248.464 101.005C248.28 101.101 248.004 101.153 247.636 101.161V101.209C248.02 101.217 248.3 101.273 248.476 101.377C248.652 101.481 248.78 101.657 248.86 101.905L249.064 102.553C249.128 102.697 249.196 102.793 249.268 102.841C249.34 102.889 249.448 102.913 249.592 102.913H249.832V104.113H248.992C248.392 104.113 248.02 103.873 247.876 103.393L247.588 102.469C247.516 102.205 247.432 102.021 247.336 101.917C247.24 101.813 247.096 101.761 246.904 101.761H246.736C246.568 101.761 246.444 101.753 246.364 101.737L246.352 101.749C246.392 101.869 246.412 102.037 246.412 102.253V104.077H245.068V102.253C245.068 102.077 245.088 101.909 245.128 101.749L245.116 101.737C245.036 101.753 244.912 101.761 244.744 101.761H244.576C244.384 101.761 244.24 101.813 244.144 101.917C244.048 102.021 243.964 102.205 243.892 102.469L243.616 103.393C243.464 103.873 243.092 104.113 242.5 104.113H241.648ZM253.12 98.3531C253.96 98.3531 254.62 98.6131 255.1 99.1331C255.58 99.6531 255.82 100.373 255.82 101.293V101.641H252.388C252.052 101.641 251.82 101.601 251.692 101.521L251.668 101.557L251.716 101.689C251.852 102.537 252.372 102.961 253.276 102.961C253.892 102.961 254.44 102.741 254.92 102.301L255.592 103.357C254.928 103.957 254.156 104.257 253.276 104.257C252.364 104.257 251.632 103.993 251.08 103.465C250.528 102.929 250.252 102.213 250.252 101.317C250.252 100.421 250.516 99.7051 251.044 99.1691C251.572 98.6251 252.264 98.3531 253.12 98.3531ZM253.072 99.5531C252.696 99.5531 252.384 99.6611 252.136 99.8771C251.888 100.085 251.74 100.373 251.692 100.741L251.716 100.765C251.828 100.693 252.028 100.657 252.316 100.657H253.624C254.008 100.657 254.236 100.689 254.308 100.753L254.332 100.729C254.308 100.353 254.184 100.065 253.96 99.8651C253.736 99.6571 253.44 99.5531 253.072 99.5531ZM260.735 98.5331H262.211V104.077H260.735V102.049C260.735 101.921 260.755 101.817 260.795 101.737L260.783 101.725C260.719 101.757 260.607 101.773 260.447 101.773H258.587C258.427 101.773 258.315 101.757 258.251 101.725L258.239 101.737C258.279 101.817 258.299 101.921 258.299 102.049V104.077H256.835V98.5331H258.299V100.189C258.299 100.317 258.279 100.421 258.239 100.501L258.251 100.513C258.315 100.481 258.427 100.465 258.587 100.465H260.447C260.607 100.465 260.719 100.481 260.783 100.513L260.795 100.501C260.755 100.421 260.735 100.317 260.735 100.189V98.5331ZM263.632 104.149V98.5331H265.096V100.405C265.096 100.981 265.068 101.413 265.012 101.701L265.06 101.713C265.164 101.513 265.376 101.265 265.696 100.969L268.408 98.4611H268.828V104.077H267.352V102.205C267.352 101.629 267.38 101.197 267.436 100.909L267.388 100.897C267.284 101.097 267.072 101.345 266.752 101.641L264.04 104.149H263.632ZM272.725 98.3531C273.565 98.3531 274.225 98.6131 274.705 99.1331C275.185 99.6531 275.425 100.373 275.425 101.293V101.641H271.993C271.657 101.641 271.425 101.601 271.297 101.521L271.273 101.557L271.321 101.689C271.457 102.537 271.977 102.961 272.881 102.961C273.497 102.961 274.045 102.741 274.525 102.301L275.197 103.357C274.533 103.957 273.761 104.257 272.881 104.257C271.969 104.257 271.237 103.993 270.685 103.465C270.133 102.929 269.857 102.213 269.857 101.317C269.857 100.421 270.121 99.7051 270.649 99.1691C271.177 98.6251 271.869 98.3531 272.725 98.3531ZM272.677 99.5531C272.301 99.5531 271.989 99.6611 271.741 99.8771C271.493 100.085 271.345 100.373 271.297 100.741L271.321 100.765C271.433 100.693 271.633 100.657 271.921 100.657H273.229C273.613 100.657 273.841 100.689 273.913 100.753L273.937 100.729C273.913 100.353 273.789 100.065 273.565 99.8651C273.341 99.6571 273.045 99.5531 272.677 99.5531ZM283.259 98.3531C284.035 98.3531 284.667 98.6251 285.155 99.1691C285.643 99.7131 285.887 100.425 285.887 101.305C285.887 102.185 285.643 102.897 285.155 103.441C284.675 103.985 284.047 104.257 283.271 104.257C282.287 104.257 281.607 103.809 281.231 102.913L281.183 102.925C281.255 103.277 281.291 103.653 281.291 104.053V106.477H279.839V98.5331H281.279C281.279 99.0131 281.243 99.3971 281.171 99.6851L281.219 99.6971C281.651 98.8011 282.331 98.3531 283.259 98.3531ZM282.839 99.6971C282.367 99.6971 281.983 99.8451 281.687 100.141C281.391 100.437 281.243 100.825 281.243 101.305C281.243 101.785 281.391 102.173 281.687 102.469C281.983 102.765 282.367 102.913 282.839 102.913C283.311 102.913 283.679 102.769 283.943 102.481C284.215 102.193 284.351 101.801 284.351 101.305C284.351 100.809 284.215 100.417 283.943 100.129C283.671 99.8411 283.303 99.6971 282.839 99.6971ZM287.421 99.1811C288.005 98.6291 288.741 98.3531 289.629 98.3531C290.517 98.3531 291.249 98.6291 291.825 99.1811C292.409 99.7331 292.701 100.441 292.701 101.305C292.701 102.169 292.409 102.877 291.825 103.429C291.249 103.981 290.517 104.257 289.629 104.257C288.741 104.257 288.005 103.981 287.421 103.429C286.845 102.877 286.557 102.169 286.557 101.305C286.557 100.441 286.845 99.7331 287.421 99.1811ZM290.757 100.177C290.469 99.8891 290.093 99.7451 289.629 99.7451C289.165 99.7451 288.789 99.8891 288.501 100.177C288.213 100.457 288.069 100.833 288.069 101.305C288.069 101.777 288.213 102.157 288.501 102.445C288.789 102.725 289.165 102.865 289.629 102.865C290.093 102.865 290.469 102.725 290.757 102.445C291.045 102.157 291.189 101.777 291.189 101.305C291.189 100.833 291.045 100.457 290.757 100.177ZM292.843 98.5331H298.135V99.8531H296.515C296.355 99.8531 296.243 99.8371 296.179 99.8051L296.167 99.8171C296.207 99.8971 296.227 100.001 296.227 100.129V104.077H294.751V100.129C294.751 100.001 294.771 99.8971 294.811 99.8171L294.799 99.8051C294.735 99.8371 294.623 99.8531 294.463 99.8531H292.843V98.5331ZM301.19 98.3531C302.03 98.3531 302.69 98.6131 303.17 99.1331C303.65 99.6531 303.89 100.373 303.89 101.293V101.641H300.458C300.122 101.641 299.89 101.601 299.762 101.521L299.738 101.557L299.786 101.689C299.922 102.537 300.442 102.961 301.346 102.961C301.962 102.961 302.51 102.741 302.99 102.301L303.662 103.357C302.998 103.957 302.226 104.257 301.346 104.257C300.434 104.257 299.702 103.993 299.15 103.465C298.598 102.929 298.322 102.213 298.322 101.317C298.322 100.421 298.586 99.7051 299.114 99.1691C299.642 98.6251 300.334 98.3531 301.19 98.3531ZM301.142 99.5531C300.766 99.5531 300.454 99.6611 300.206 99.8771C299.958 100.085 299.81 100.373 299.762 100.741L299.786 100.765C299.898 100.693 300.098 100.657 300.386 100.657H301.694C302.078 100.657 302.306 100.689 302.378 100.753L302.402 100.729C302.378 100.353 302.254 100.065 302.03 99.8651C301.806 99.6571 301.51 99.5531 301.142 99.5531ZM308.325 98.3531C309.101 98.3531 309.733 98.6251 310.221 99.1691C310.709 99.7131 310.953 100.425 310.953 101.305C310.953 102.185 310.709 102.897 310.221 103.441C309.741 103.985 309.113 104.257 308.337 104.257C307.353 104.257 306.673 103.809 306.297 102.913L306.249 102.925C306.321 103.277 306.357 103.653 306.357 104.053V106.477H304.905V98.5331H306.345C306.345 99.0131 306.309 99.3971 306.237 99.6851L306.285 99.6971C306.717 98.8011 307.397 98.3531 308.325 98.3531ZM307.905 99.6971C307.433 99.6971 307.049 99.8451 306.753 100.141C306.457 100.437 306.309 100.825 306.309 101.305C306.309 101.785 306.457 102.173 306.753 102.469C307.049 102.765 307.433 102.913 307.905 102.913C308.377 102.913 308.745 102.769 309.009 102.481C309.281 102.193 309.417 101.801 309.417 101.305C309.417 100.809 309.281 100.417 309.009 100.129C308.737 99.8411 308.369 99.6971 307.905 99.6971ZM314.253 98.3531C315.133 98.3531 315.769 98.5291 316.161 98.8811C316.553 99.2331 316.749 99.8011 316.749 100.585V104.077H315.261C315.261 103.701 315.321 103.373 315.441 103.093L315.393 103.069C314.985 103.861 314.349 104.257 313.485 104.257C312.893 104.257 312.413 104.081 312.045 103.729C311.685 103.369 311.505 102.897 311.505 102.313C311.505 101.729 311.685 101.265 312.045 100.921C312.413 100.569 312.901 100.393 313.509 100.393C314.357 100.393 314.977 100.713 315.369 101.353L315.417 101.329C315.353 101.137 315.321 100.865 315.321 100.513C315.281 99.9211 314.873 99.6251 314.097 99.6251C313.665 99.6251 313.117 99.7051 312.453 99.8651L312.165 98.6291C312.885 98.4451 313.581 98.3531 314.253 98.3531ZM314.073 101.401C313.777 101.401 313.537 101.481 313.353 101.641C313.169 101.801 313.077 102.009 313.077 102.265C313.077 102.521 313.165 102.729 313.341 102.889C313.525 103.041 313.765 103.117 314.061 103.117C314.365 103.117 314.613 103.037 314.805 102.877C314.997 102.717 315.093 102.509 315.093 102.253C315.093 102.005 314.997 101.801 314.805 101.641C314.621 101.481 314.377 101.401 314.073 101.401ZM317.873 106.081L318.317 102.877H319.529L318.449 106.081H317.873ZM328.806 104.113C328.198 104.113 327.822 103.861 327.678 103.357L327.402 102.361C327.322 102.081 327.218 101.885 327.09 101.773C326.97 101.653 326.794 101.593 326.562 101.593H325.998C325.83 101.593 325.706 101.585 325.626 101.569L325.614 101.581C325.654 101.757 325.674 101.925 325.674 102.085V104.077H324.654V98.5331H325.674V100.309C325.674 100.453 325.654 100.613 325.614 100.789L325.626 100.801C325.706 100.785 325.83 100.777 325.998 100.777H326.562C326.802 100.777 326.978 100.729 327.09 100.633C327.202 100.537 327.31 100.349 327.414 100.069L327.822 99.0971C327.974 98.6971 328.326 98.4971 328.878 98.4971H329.43V99.4091H329.154C328.978 99.4091 328.846 99.4411 328.758 99.5051C328.67 99.5691 328.59 99.6851 328.518 99.8531L328.302 100.441C328.126 100.913 327.73 101.153 327.114 101.161V101.209C327.466 101.217 327.726 101.277 327.894 101.389C328.07 101.493 328.198 101.673 328.278 101.929L328.53 102.781C328.578 102.949 328.638 103.061 328.71 103.117C328.79 103.173 328.926 103.201 329.118 103.201H329.442V104.113H328.806ZM330.598 104.077V95.6771H333.658C334.378 95.6771 334.95 95.8651 335.374 96.2411C335.798 96.6171 336.01 97.1251 336.01 97.7651C336.01 98.5891 335.658 99.1451 334.954 99.4331C334.762 99.5211 334.546 99.5691 334.306 99.5771V99.6251C334.57 99.6331 334.79 99.6611 334.966 99.7091C335.462 99.8291 335.846 100.069 336.118 100.429C336.39 100.781 336.526 101.225 336.526 101.761C336.526 102.473 336.286 103.037 335.806 103.453C335.334 103.869 334.698 104.077 333.898 104.077H330.598ZM331.666 99.2651C331.754 99.2411 331.854 99.2291 331.966 99.2291H333.322C333.818 99.2291 334.202 99.1131 334.474 98.8811C334.754 98.6491 334.894 98.3251 334.894 97.9091C334.894 97.5171 334.77 97.2171 334.522 97.0091C334.282 96.8011 333.934 96.6971 333.478 96.6971H331.966C331.83 96.6971 331.73 96.6811 331.666 96.6491L331.642 96.6731C331.666 96.7291 331.678 96.8331 331.678 96.9851V98.9531C331.678 99.0811 331.666 99.1811 331.642 99.2531L331.666 99.2651ZM331.666 103.105C331.73 103.073 331.83 103.057 331.966 103.057H333.73C334.834 103.057 335.386 102.597 335.386 101.677C335.386 100.709 334.778 100.225 333.562 100.225H331.966C331.838 100.225 331.738 100.209 331.666 100.177L331.642 100.201C331.666 100.257 331.678 100.357 331.678 100.501V102.769C331.678 102.921 331.666 103.025 331.642 103.081L331.666 103.105ZM337.164 98.5331H342.396V99.4811H340.572C340.412 99.4811 340.3 99.4651 340.236 99.4331L340.224 99.4451C340.264 99.5251 340.284 99.6291 340.284 99.7571V104.077H339.276V99.7571C339.276 99.6291 339.296 99.5251 339.336 99.4451L339.324 99.4331C339.26 99.4651 339.148 99.4811 338.988 99.4811H337.164V98.5331Z" fill="black" id="svg_47"/><rect x="384.82598876953125" y="90.07710266113281" width="34" height="20" rx="4" fill="#414F4F" id="svg_48" class=""/><path d="M214.662 118.677V127.077H213.126V123.657C213.126 123.489 213.142 123.377 213.174 123.321L213.15 123.297C213.07 123.337 212.962 123.357 212.826 123.357H209.502C209.374 123.357 209.27 123.337 209.19 123.297L209.166 123.321C209.198 123.401 209.214 123.513 209.214 123.657V127.077H207.678V118.677H209.214V121.617C209.214 121.761 209.198 121.873 209.166 121.953L209.19 121.977C209.254 121.945 209.358 121.929 209.502 121.929H212.826C212.978 121.929 213.086 121.945 213.15 121.977L213.174 121.953C213.142 121.897 213.126 121.785 213.126 121.617V118.677H214.662ZM218.546 121.353C219.426 121.353 220.062 121.529 220.454 121.881C220.846 122.233 221.042 122.801 221.042 123.585V127.077H219.554C219.554 126.701 219.614 126.373 219.734 126.093L219.686 126.069C219.278 126.861 218.642 127.257 217.778 127.257C217.186 127.257 216.706 127.081 216.338 126.729C215.978 126.369 215.798 125.897 215.798 125.313C215.798 124.729 215.978 124.265 216.338 123.921C216.706 123.569 217.194 123.393 217.802 123.393C218.65 123.393 219.27 123.713 219.662 124.353L219.71 124.329C219.646 124.137 219.614 123.865 219.614 123.513C219.574 122.921 219.166 122.625 218.39 122.625C217.958 122.625 217.41 122.705 216.746 122.865L216.458 121.629C217.178 121.445 217.874 121.353 218.546 121.353ZM218.366 124.401C218.07 124.401 217.83 124.481 217.646 124.641C217.462 124.801 217.37 125.009 217.37 125.265C217.37 125.521 217.458 125.729 217.634 125.889C217.818 126.041 218.058 126.117 218.354 126.117C218.658 126.117 218.906 126.037 219.098 125.877C219.29 125.717 219.386 125.509 219.386 125.253C219.386 125.005 219.29 124.801 219.098 124.641C218.914 124.481 218.67 124.401 218.366 124.401ZM227.614 121.533V127.077H226.138V123.129C226.138 123.001 226.158 122.897 226.198 122.817L226.186 122.805C226.122 122.837 226.01 122.853 225.85 122.853H224.11C223.95 122.853 223.838 122.837 223.774 122.805L223.762 122.817C223.802 122.897 223.822 123.001 223.822 123.129V127.077H222.346V121.533H227.614ZM232.411 121.353C233.187 121.353 233.819 121.625 234.307 122.169C234.795 122.713 235.039 123.425 235.039 124.305C235.039 125.185 234.795 125.897 234.307 126.441C233.827 126.985 233.199 127.257 232.423 127.257C231.439 127.257 230.759 126.809 230.383 125.913L230.335 125.925C230.407 126.277 230.443 126.653 230.443 127.053V129.477H228.991V121.533H230.431C230.431 122.013 230.395 122.397 230.323 122.685L230.371 122.697C230.803 121.801 231.483 121.353 232.411 121.353ZM231.991 122.697C231.519 122.697 231.135 122.845 230.839 123.141C230.543 123.437 230.395 123.825 230.395 124.305C230.395 124.785 230.543 125.173 230.839 125.469C231.135 125.765 231.519 125.913 231.991 125.913C232.463 125.913 232.831 125.769 233.095 125.481C233.367 125.193 233.503 124.801 233.503 124.305C233.503 123.809 233.367 123.417 233.095 123.129C232.823 122.841 232.455 122.697 231.991 122.697ZM240.729 121.533V127.077H239.253V125.373C239.253 125.245 239.273 125.141 239.313 125.061L239.301 125.049C239.245 125.081 239.133 125.097 238.965 125.097H238.773L237.129 127.077H235.365V127.017L236.673 125.589C236.913 125.317 237.145 125.129 237.369 125.025V124.989C237.193 125.021 237.053 125.017 236.949 124.977C236.549 124.881 236.241 124.685 236.025 124.389C235.817 124.085 235.713 123.733 235.713 123.333C235.713 122.765 235.889 122.325 236.241 122.013C236.601 121.693 237.105 121.533 237.753 121.533H240.729ZM239.313 124.065C239.273 123.985 239.253 123.881 239.253 123.753V122.973C239.253 122.845 239.273 122.741 239.313 122.661L239.301 122.649C239.229 122.681 239.117 122.697 238.965 122.697H238.113C237.553 122.697 237.273 122.917 237.273 123.357C237.273 123.805 237.553 124.029 238.113 124.029H238.965C239.133 124.029 239.245 124.045 239.301 124.077L239.313 124.065ZM241.648 127.113V125.913H241.888C242.032 125.913 242.14 125.889 242.212 125.841C242.284 125.793 242.352 125.697 242.416 125.553L242.62 124.905C242.7 124.665 242.828 124.493 243.004 124.389C243.188 124.277 243.472 124.217 243.856 124.209V124.161C243.48 124.153 243.2 124.097 243.016 123.993C242.832 123.889 242.704 123.733 242.632 123.525L242.452 123.069C242.38 122.925 242.304 122.829 242.224 122.781C242.144 122.725 242.032 122.697 241.888 122.697H241.648V121.497H242.416C242.968 121.497 243.332 121.701 243.508 122.109L243.88 122.997C243.976 123.237 244.068 123.401 244.156 123.489C244.252 123.569 244.392 123.609 244.576 123.609H244.744C244.912 123.609 245.036 123.617 245.116 123.633L245.128 123.621C245.088 123.461 245.068 123.301 245.068 123.141V121.533H246.412V123.141C246.412 123.341 246.392 123.501 246.352 123.621L246.364 123.633C246.444 123.617 246.568 123.609 246.736 123.609H246.904C247.096 123.609 247.236 123.569 247.324 123.489C247.42 123.401 247.516 123.237 247.612 122.997L247.984 122.109C248.152 121.701 248.516 121.497 249.076 121.497H249.844V122.697H249.604C249.452 122.697 249.336 122.725 249.256 122.781C249.176 122.829 249.104 122.925 249.04 123.069L248.86 123.525C248.78 123.741 248.648 123.901 248.464 124.005C248.28 124.101 248.004 124.153 247.636 124.161V124.209C248.02 124.217 248.3 124.273 248.476 124.377C248.652 124.481 248.78 124.657 248.86 124.905L249.064 125.553C249.128 125.697 249.196 125.793 249.268 125.841C249.34 125.889 249.448 125.913 249.592 125.913H249.832V127.113H248.992C248.392 127.113 248.02 126.873 247.876 126.393L247.588 125.469C247.516 125.205 247.432 125.021 247.336 124.917C247.24 124.813 247.096 124.761 246.904 124.761H246.736C246.568 124.761 246.444 124.753 246.364 124.737L246.352 124.749C246.392 124.869 246.412 125.037 246.412 125.253V127.077H245.068V125.253C245.068 125.077 245.088 124.909 245.128 124.749L245.116 124.737C245.036 124.753 244.912 124.761 244.744 124.761H244.576C244.384 124.761 244.24 124.813 244.144 124.917C244.048 125.021 243.964 125.205 243.892 125.469L243.616 126.393C243.464 126.873 243.092 127.113 242.5 127.113H241.648ZM253.12 121.353C253.96 121.353 254.62 121.613 255.1 122.133C255.58 122.653 255.82 123.373 255.82 124.293V124.641H252.388C252.052 124.641 251.82 124.601 251.692 124.521L251.668 124.557L251.716 124.689C251.852 125.537 252.372 125.961 253.276 125.961C253.892 125.961 254.44 125.741 254.92 125.301L255.592 126.357C254.928 126.957 254.156 127.257 253.276 127.257C252.364 127.257 251.632 126.993 251.08 126.465C250.528 125.929 250.252 125.213 250.252 124.317C250.252 123.421 250.516 122.705 251.044 122.169C251.572 121.625 252.264 121.353 253.12 121.353ZM253.072 122.553C252.696 122.553 252.384 122.661 252.136 122.877C251.888 123.085 251.74 123.373 251.692 123.741L251.716 123.765C251.828 123.693 252.028 123.657 252.316 123.657H253.624C254.008 123.657 254.236 123.689 254.308 123.753L254.332 123.729C254.308 123.353 254.184 123.065 253.96 122.865C253.736 122.657 253.44 122.553 253.072 122.553ZM260.735 121.533H262.211V127.077H260.735V125.049C260.735 124.921 260.755 124.817 260.795 124.737L260.783 124.725C260.719 124.757 260.607 124.773 260.447 124.773H258.587C258.427 124.773 258.315 124.757 258.251 124.725L258.239 124.737C258.279 124.817 258.299 124.921 258.299 125.049V127.077H256.835V121.533H258.299V123.189C258.299 123.317 258.279 123.421 258.239 123.501L258.251 123.513C258.315 123.481 258.427 123.465 258.587 123.465H260.447C260.607 123.465 260.719 123.481 260.783 123.513L260.795 123.501C260.755 123.421 260.735 123.317 260.735 123.189V121.533ZM263.632 127.149V121.533H265.096V123.405C265.096 123.981 265.068 124.413 265.012 124.701L265.06 124.713C265.164 124.513 265.376 124.265 265.696 123.969L268.408 121.461H268.828V127.077H267.352V125.205C267.352 124.629 267.38 124.197 267.436 123.909L267.388 123.897C267.284 124.097 267.072 124.345 266.752 124.641L264.04 127.149H263.632ZM272.725 121.353C273.565 121.353 274.225 121.613 274.705 122.133C275.185 122.653 275.425 123.373 275.425 124.293V124.641H271.993C271.657 124.641 271.425 124.601 271.297 124.521L271.273 124.557L271.321 124.689C271.457 125.537 271.977 125.961 272.881 125.961C273.497 125.961 274.045 125.741 274.525 125.301L275.197 126.357C274.533 126.957 273.761 127.257 272.881 127.257C271.969 127.257 271.237 126.993 270.685 126.465C270.133 125.929 269.857 125.213 269.857 124.317C269.857 123.421 270.121 122.705 270.649 122.169C271.177 121.625 271.869 121.353 272.725 121.353ZM272.677 122.553C272.301 122.553 271.989 122.661 271.741 122.877C271.493 123.085 271.345 123.373 271.297 123.741L271.321 123.765C271.433 123.693 271.633 123.657 271.921 123.657H273.229C273.613 123.657 273.841 123.689 273.913 123.753L273.937 123.729C273.913 123.353 273.789 123.065 273.565 122.865C273.341 122.657 273.045 122.553 272.677 122.553ZM282.527 127.257C281.623 127.257 280.887 126.985 280.319 126.441C279.751 125.889 279.467 125.177 279.467 124.305C279.467 123.433 279.751 122.725 280.319 122.181C280.887 121.629 281.623 121.353 282.527 121.353C283.231 121.353 283.879 121.537 284.471 121.905L283.835 123.117C283.451 122.861 283.023 122.733 282.551 122.733C282.087 122.733 281.707 122.881 281.411 123.177C281.123 123.465 280.979 123.841 280.979 124.305C280.979 124.769 281.123 125.149 281.411 125.445C281.707 125.733 282.087 125.877 282.551 125.877C283.023 125.877 283.451 125.749 283.835 125.493L284.471 126.705C283.879 127.073 283.231 127.257 282.527 127.257ZM284.757 121.533H290.049V122.853H288.429C288.269 122.853 288.157 122.837 288.093 122.805L288.081 122.817C288.121 122.897 288.141 123.001 288.141 123.129V127.077H286.665V123.129C286.665 123.001 286.685 122.897 286.725 122.817L286.713 122.805C286.649 122.837 286.537 122.853 286.377 122.853H284.757V121.533ZM292.831 121.353C293.711 121.353 294.347 121.529 294.739 121.881C295.131 122.233 295.327 122.801 295.327 123.585V127.077H293.839C293.839 126.701 293.899 126.373 294.019 126.093L293.971 126.069C293.563 126.861 292.927 127.257 292.063 127.257C291.471 127.257 290.991 127.081 290.623 126.729C290.263 126.369 290.083 125.897 290.083 125.313C290.083 124.729 290.263 124.265 290.623 123.921C290.991 123.569 291.479 123.393 292.087 123.393C292.935 123.393 293.555 123.713 293.947 124.353L293.995 124.329C293.931 124.137 293.899 123.865 293.899 123.513C293.859 122.921 293.451 122.625 292.675 122.625C292.243 122.625 291.695 122.705 291.031 122.865L290.743 121.629C291.463 121.445 292.159 121.353 292.831 121.353ZM292.651 124.401C292.355 124.401 292.115 124.481 291.931 124.641C291.747 124.801 291.655 125.009 291.655 125.265C291.655 125.521 291.743 125.729 291.919 125.889C292.103 126.041 292.343 126.117 292.639 126.117C292.943 126.117 293.191 126.037 293.383 125.877C293.575 125.717 293.671 125.509 293.671 125.253C293.671 125.005 293.575 124.801 293.383 124.641C293.199 124.481 292.955 124.401 292.651 124.401ZM295.761 121.533H301.053V122.853H299.433C299.273 122.853 299.161 122.837 299.097 122.805L299.085 122.817C299.125 122.897 299.145 123.001 299.145 123.129V127.077H297.669V123.129C297.669 123.001 297.689 122.897 297.729 122.817L297.717 122.805C297.653 122.837 297.541 122.853 297.381 122.853H295.761V121.533ZM304.108 121.353C304.948 121.353 305.608 121.613 306.088 122.133C306.568 122.653 306.808 123.373 306.808 124.293V124.641H303.376C303.04 124.641 302.808 124.601 302.68 124.521L302.656 124.557L302.704 124.689C302.84 125.537 303.36 125.961 304.264 125.961C304.88 125.961 305.428 125.741 305.908 125.301L306.58 126.357C305.916 126.957 305.144 127.257 304.264 127.257C303.352 127.257 302.62 126.993 302.068 126.465C301.516 125.929 301.24 125.213 301.24 124.317C301.24 123.421 301.504 122.705 302.032 122.169C302.56 121.625 303.252 121.353 304.108 121.353ZM304.06 122.553C303.684 122.553 303.372 122.661 303.124 122.877C302.876 123.085 302.728 123.373 302.68 123.741L302.704 123.765C302.816 123.693 303.016 123.657 303.304 123.657H304.612C304.996 123.657 305.224 123.689 305.296 123.753L305.32 123.729C305.296 123.353 305.172 123.065 304.948 122.865C304.724 122.657 304.428 122.553 304.06 122.553ZM311.243 121.353C312.019 121.353 312.651 121.625 313.139 122.169C313.627 122.713 313.871 123.425 313.871 124.305C313.871 125.185 313.627 125.897 313.139 126.441C312.659 126.985 312.031 127.257 311.255 127.257C310.271 127.257 309.591 126.809 309.215 125.913L309.167 125.925C309.239 126.277 309.275 126.653 309.275 127.053V129.477H307.823V121.533H309.263C309.263 122.013 309.227 122.397 309.155 122.685L309.203 122.697C309.635 121.801 310.315 121.353 311.243 121.353ZM310.823 122.697C310.351 122.697 309.967 122.845 309.671 123.141C309.375 123.437 309.227 123.825 309.227 124.305C309.227 124.785 309.375 125.173 309.671 125.469C309.967 125.765 310.351 125.913 310.823 125.913C311.295 125.913 311.663 125.769 311.927 125.481C312.199 125.193 312.335 124.801 312.335 124.305C312.335 123.809 312.199 123.417 311.927 123.129C311.655 122.841 311.287 122.697 310.823 122.697ZM317.171 121.353C318.051 121.353 318.687 121.529 319.079 121.881C319.471 122.233 319.667 122.801 319.667 123.585V127.077H318.179C318.179 126.701 318.239 126.373 318.359 126.093L318.311 126.069C317.903 126.861 317.267 127.257 316.403 127.257C315.811 127.257 315.331 127.081 314.963 126.729C314.603 126.369 314.423 125.897 314.423 125.313C314.423 124.729 314.603 124.265 314.963 123.921C315.331 123.569 315.819 123.393 316.427 123.393C317.275 123.393 317.895 123.713 318.287 124.353L318.335 124.329C318.271 124.137 318.239 123.865 318.239 123.513C318.199 122.921 317.791 122.625 317.015 122.625C316.583 122.625 316.035 122.705 315.371 122.865L315.083 121.629C315.803 121.445 316.499 121.353 317.171 121.353ZM316.991 124.401C316.695 124.401 316.455 124.481 316.271 124.641C316.087 124.801 315.995 125.009 315.995 125.265C315.995 125.521 316.083 125.729 316.259 125.889C316.443 126.041 316.683 126.117 316.979 126.117C317.283 126.117 317.531 126.037 317.723 125.877C317.915 125.717 318.011 125.509 318.011 125.253C318.011 125.005 317.915 124.801 317.723 124.641C317.539 124.481 317.295 124.401 316.991 124.401ZM320.791 129.081L321.235 125.877H322.447L321.367 129.081H320.791ZM331.724 127.113C331.116 127.113 330.74 126.861 330.596 126.357L330.32 125.361C330.24 125.081 330.136 124.885 330.008 124.773C329.888 124.653 329.712 124.593 329.48 124.593H328.916C328.748 124.593 328.624 124.585 328.544 124.569L328.532 124.581C328.572 124.757 328.592 124.925 328.592 125.085V127.077H327.572V121.533H328.592V123.309C328.592 123.453 328.572 123.613 328.532 123.789L328.544 123.801C328.624 123.785 328.748 123.777 328.916 123.777H329.48C329.72 123.777 329.896 123.729 330.008 123.633C330.12 123.537 330.228 123.349 330.332 123.069L330.74 122.097C330.892 121.697 331.244 121.497 331.796 121.497H332.348V122.409H332.072C331.896 122.409 331.764 122.441 331.676 122.505C331.588 122.569 331.508 122.685 331.436 122.853L331.22 123.441C331.044 123.913 330.648 124.153 330.032 124.161V124.209C330.384 124.217 330.644 124.277 330.812 124.389C330.988 124.493 331.116 124.673 331.196 124.929L331.448 125.781C331.496 125.949 331.556 126.061 331.628 126.117C331.708 126.173 331.844 126.201 332.036 126.201H332.36V127.113H331.724ZM333.516 127.077V118.677H336.576C337.296 118.677 337.868 118.865 338.292 119.241C338.716 119.617 338.928 120.125 338.928 120.765C338.928 121.589 338.576 122.145 337.872 122.433C337.68 122.521 337.464 122.569 337.224 122.577V122.625C337.488 122.633 337.708 122.661 337.884 122.709C338.38 122.829 338.764 123.069 339.036 123.429C339.308 123.781 339.444 124.225 339.444 124.761C339.444 125.473 339.204 126.037 338.724 126.453C338.252 126.869 337.616 127.077 336.816 127.077H333.516ZM334.584 122.265C334.672 122.241 334.772 122.229 334.884 122.229H336.24C336.736 122.229 337.12 122.113 337.392 121.881C337.672 121.649 337.812 121.325 337.812 120.909C337.812 120.517 337.688 120.217 337.44 120.009C337.2 119.801 336.852 119.697 336.396 119.697H334.884C334.748 119.697 334.648 119.681 334.584 119.649L334.56 119.673C334.584 119.729 334.596 119.833 334.596 119.985V121.953C334.596 122.081 334.584 122.181 334.56 122.253L334.584 122.265ZM334.584 126.105C334.648 126.073 334.748 126.057 334.884 126.057H336.648C337.752 126.057 338.304 125.597 338.304 124.677C338.304 123.709 337.696 123.225 336.48 123.225H334.884C334.756 123.225 334.656 123.209 334.584 123.177L334.56 123.201C334.584 123.257 334.596 123.357 334.596 123.501V125.769C334.596 125.921 334.584 126.025 334.56 126.081L334.584 126.105ZM340.081 121.533H345.313V122.481H343.489C343.329 122.481 343.217 122.465 343.153 122.433L343.141 122.445C343.181 122.525 343.201 122.629 343.201 122.757V127.077H342.193V122.757C342.193 122.629 342.213 122.525 342.253 122.445L342.241 122.433C342.177 122.465 342.065 122.481 341.905 122.481H340.081V121.533Z" fill="black" id="svg_50"/><rect x="384.82598876953125" y="113.0770034790039" width="34" height="20" rx="4" fill="#414F4F" id="svg_51"/><rect x="196.18665945529938" y="0.5307022333145142" width="230" height="148" rx="9" stroke="#8D9595" stroke-width="2" id="svg_53" class="selected"/><path d="M186.826 40.0771H196.826V111.077L186.826 100.652V40.0771Z" fill="#8D9595" id="svg_54"/><path d="M438.826 110.077L428.826 110.077L428.826 39.0771L438.826 49.5019L438.826 110.077Z" fill="#8D9595" id="svg_55" class=""/><rect x="468.58807945251465" y="47.2064790725708" width="18.839799880981445" height="18.839799880981445" rx="3.2403600215911865" stroke="#484848" stroke-width="2.16024" class="" stroke-opacity="1" id="svg_56"/></g></svg>