<svg width="38" height="22" viewBox="0 0 38 22" fill="none" xmlns="http://www.w3.org/2000/svg">
<rect x="1.49677" y="1.49826" width="36.0035" height="19.0035" rx="1.5" fill="#F4F4F4"/>
<path d="M14.1478 6.4L10.1568 15.63H10.0268L6.02277 6.4H7.40077L9.61077 11.847C9.80143 12.3237 9.9531 12.874 10.0658 13.498H10.1178C10.2044 12.9347 10.3561 12.3843 10.5728 11.847L12.7828 6.4H14.1478Z" fill="black"/>
<path d="M23.5068 9.00729C23.0188 9.55657 22.7493 10.2658 22.7493 11.0005C22.7493 11.7352 23.0188 12.4445 23.5068 12.9937" stroke="#868686" stroke-width="1.00189" stroke-linecap="round" stroke-linejoin="round"/>
<path d="M26.5246 12.9937C27.0126 12.4445 27.2821 11.7352 27.2821 11.0005C27.2821 10.2658 27.0126 9.55657 26.5246 9.00729" stroke="#868686" stroke-width="1.00189" stroke-linecap="round" stroke-linejoin="round"/>
<path d="M21.9133 7.41428C21.0042 8.38694 20.4984 9.66864 20.4984 11.0001C20.4984 12.3315 21.0042 13.6132 21.9133 14.5858" stroke="#868686" stroke-width="1.00189" stroke-linecap="round" stroke-linejoin="round"/>
<path d="M28.1167 14.5858C29.0258 13.6132 29.5316 12.3315 29.5316 11.0001C29.5316 9.66864 29.0258 8.38694 28.1167 7.41428" stroke="#868686" stroke-width="1.00189" stroke-linecap="round" stroke-linejoin="round"/>
<path d="M29.8757 16.0004C31.1037 14.624 31.7823 12.8439 31.7823 10.9993C31.7823 9.15478 31.1037 7.37468 29.8757 5.99826" stroke="#868686" stroke-width="1.00189" stroke-linecap="round" stroke-linejoin="round"/>
<path d="M20.1545 5.99826C18.9266 7.37468 18.2479 9.15478 18.2479 10.9993C18.2479 12.8439 18.9266 14.624 20.1545 16.0004" stroke="#868686" stroke-width="1.00189" stroke-linecap="round" stroke-linejoin="round"/>
<rect x="1.49677" y="1.49826" width="36.0035" height="19.0035" rx="1.5" stroke="#CCCCCC"/>
</svg>
